<?xml version="1.0" encoding="UTF-8"?>
<svg width="1300px" height="1000px" viewBox="0 0 1300 1000" version="1.1" xmlns="http://www.w3.org/2000/svg" xmlns:xlink="http://www.w3.org/1999/xlink">
    <!-- Generator: Sketch 64 (93537) - https://sketch.com -->
    <title>Artboard</title>
    <desc>Created with Sketch.</desc>
    <g id="Artboard" stroke="none" stroke-width="1" fill="none" fill-rule="evenodd">
        <g id="Group" transform="translate(94.000000, 136.000000)">
            <g id="404" transform="translate(0.000000, 186.000000)">
                <ellipse id="Oval" fill="#F2F2F2" fill-rule="nonzero" cx="540.64346" cy="394.3094" rx="527.5" ry="34.9216"></ellipse>
                <path d="M520.42569,12.00974 C434.48162,12.00974 372.77469,67.14912 372.77469,195.80765 C372.77469,341.62065 434.4816,380.21822 520.42569,380.21822 C606.36978,380.21822 671.75269,337.9447 671.75269,195.80765 C671.75269,43.86805 606.36976,12.00974 520.42569,12.00974 Z M520.99064,331.81811 C461.46378,331.81811 430.36472,296.89523 430.36472,195.90181 C430.36472,106.78996 462.73681,59.7972 522.26372,59.7972 C581.79063,59.7972 614.16272,90.66494 614.16272,195.90181 C614.16272,294.34917 580.5175,331.81811 520.99064,331.81811 Z" id="Shape" fill="#2F2E41" fill-rule="nonzero"></path>
                <path d="M321.31131,278.51671 L285.777,278.51671 L285.777,173.87733 C285.776989,162.303749 276.394751,152.921511 264.82117,152.9215 L256.49479,152.9215 C250.936951,152.921497 245.606746,155.129338 241.67676,159.059323 C237.746774,162.989307 235.53893,168.319511 235.53893,173.87735 L235.53893,278.51671 L135.30885,278.51671 C131.114876,278.516715 127.227157,276.320514 125.062392,272.72841 C122.897628,269.136306 122.771974,264.672913 124.73122,260.96471 L230.81362,60.18437 C233.486199,55.1259958 233.97452,49.1948723 232.165253,43.7674991 C230.355985,38.3401259 226.406444,33.8884068 221.23324,31.4455 L214.97093,28.4883 C204.871693,23.7192156 192.806884,27.7086872 187.54163,37.55835 L58.16016,279.5909 C55.956972,283.712375 54.80432,288.313628 54.80432,292.98702 L54.80432,292.98702 C54.80432,300.523368 57.7981234,307.751047 63.1271274,313.08005 C68.4561315,318.409052 75.6838116,321.402853 83.22016,321.40285 L235.53893,321.40285 L235.53893,387.57012 C235.53893,394.232093 238.185388,400.621209 242.896115,405.331935 C247.606841,410.042662 253.995957,412.68912 260.65793,412.68912 L260.65798,412.68912 C267.319953,412.68912 273.709069,410.042662 278.419795,405.331935 C283.130522,400.621209 285.77698,394.232093 285.77698,387.57012 L285.77698,321.40289 L321.31126,321.40289 C333.153941,321.40289 342.75433,311.802501 342.75433,299.95982 L342.75433,299.95982 C342.75433,288.117143 333.153987,278.516738 321.31131,278.51671 Z" id="Path" fill="#725AC1" fill-rule="nonzero"></path>
                <path d="M979.30783,278.51671 L943.77355,278.51671 L943.77355,173.87733 C943.773539,162.303738 934.391282,152.921494 922.81769,152.9215 L914.49131,152.9215 C908.933471,152.921497 903.603266,155.129338 899.67328,159.059323 C895.743294,162.989307 893.53545,168.319511 893.53545,173.87735 L893.53545,278.51671 L793.30537,278.51671 C789.111394,278.516721 785.22367,276.320521 783.058904,272.728415 C780.894139,269.136309 780.768488,264.672913 782.72774,260.96471 L888.81013,60.18441 C891.48272,55.1260327 891.971048,49.1949012 890.161782,43.7675193 C888.352516,38.3401373 884.402971,33.8884102 879.22976,31.4455 L872.96745,28.4883 C862.86821,23.7192146 850.803398,27.7086859 845.53814,37.55835 L716.15668,279.5909 C713.953492,283.712375 712.80084,288.313628 712.80084,292.98702 L712.80084,292.98702 C712.80084,308.68065 725.52304,321.40285 741.21667,321.40285 L893.53545,321.40285 L893.53545,387.57012 C893.53545,401.442961 904.781609,412.68912 918.65445,412.68912 L918.65445,412.68912 C932.527291,412.68912 943.77345,401.442961 943.77345,387.57012 L943.77345,321.40289 L979.30773,321.40289 C991.150411,321.40289 1000.7508,311.802501 1000.7508,299.95982 L1000.7508,299.95982 C1000.7508,288.117163 991.150487,278.516765 979.30783,278.51671 L979.30783,278.51671 Z" id="Path" fill="#725AC1" fill-rule="nonzero"></path>
                <path d="M331.11387,266.2635 L295.57958,266.2635 L295.57958,161.62414 C295.579583,156.066301 293.371742,150.736096 289.441757,146.80611 C285.511773,142.876124 280.181569,140.66828 274.62373,140.66828 L266.29735,140.66828 C254.723748,140.66828 245.34149,150.050538 245.34149,161.62414 L245.34149,266.2635 L145.11141,266.2635 C140.917436,266.263505 137.029717,264.067304 134.864952,260.4752 C132.700188,256.883096 132.574534,252.419703 134.53378,248.7115 L240.61617,47.93122 C243.288767,42.8728408 243.777098,36.9417043 241.967832,31.5143174 C240.158566,26.0869305 236.209016,21.6352 231.0358,19.19229 L224.77349,16.23509 C214.674263,11.4659968 202.609456,15.4554446 197.34418,25.30509 L67.96272,267.3377 C65.7595319,271.459178 64.60688,276.060435 64.60688,280.73383 L64.60688,280.73383 C64.60688,296.42746 77.3290804,309.14966 93.02271,309.14966 L245.34149,309.14966 L245.34149,375.31693 C245.34149,381.978903 247.987948,388.368019 252.698675,393.078745 C257.409401,397.789472 263.798517,400.43593 270.46049,400.43593 L270.46054,400.43593 C284.333381,400.43593 295.57954,389.189771 295.57954,375.31693 L295.57954,309.1497 L331.11383,309.1497 C336.800886,309.1497 342.255015,306.890526 346.27637,302.86917 C350.297726,298.847815 352.5569,293.393686 352.5569,287.70663 L352.5569,287.70663 C352.5569,282.019571 350.297754,276.565433 346.276406,272.544065 C342.255057,268.522698 336.800929,266.263511 331.11387,266.2635 L331.11387,266.2635 Z" id="Path" stroke="#3F3D56"></path>
                <path d="M997.68762,266.2635 L962.15334,266.2635 L962.15334,161.62414 C962.15334,150.050538 952.771082,140.66828 941.19748,140.66828 L932.8711,140.66828 C927.31326,140.66828 921.983055,142.876123 918.053069,146.806109 C914.123083,150.736095 911.91524,156.0663 911.91524,161.62414 L911.91524,266.2635 L811.68516,266.2635 C807.491186,266.263505 803.603467,264.067304 801.438702,260.4752 C799.273938,256.883096 799.148284,252.419703 801.10753,248.7115 L907.18992,47.93122 C909.862517,42.8728408 910.350848,36.9417043 908.541582,31.5143174 C906.732316,26.0869305 902.782766,21.6352 897.60955,19.19229 L891.34724,16.23509 C881.248013,11.4659968 869.183206,15.4554446 863.91793,25.30509 L734.53647,267.3377 C732.333282,271.459178 731.18063,276.060435 731.18063,280.73383 C731.18063,296.42746 743.90283,309.14966 759.59646,309.14966 L911.91524,309.14966 L911.91524,375.31693 C911.91524,389.189771 923.161399,400.43593 937.03424,400.43593 C950.907081,400.43593 962.15324,389.189771 962.15324,375.31693 L962.15324,309.1497 L997.68752,309.1497 C1003.37458,309.1497 1008.8287,306.890526 1012.85006,302.86917 C1016.87142,298.847815 1019.13059,293.393686 1019.13059,287.70663 C1019.13059,275.863965 1009.53028,266.263555 997.68762,266.2635 Z" id="Path" stroke="#3F3D56"></path>
                <path d="M540.0308,0.98187 C454.08673,0.98187 392.3798,56.12124 392.3798,184.77978 C392.3798,330.59278 454.08671,369.19035 540.0308,369.19035 C625.97489,369.19035 691.3578,326.91683 691.3578,184.77978 C691.3578,32.84017 625.97487,0.98187 540.0308,0.98187 Z M540.5958,320.79023 C481.06894,320.79023 449.96988,285.86736 449.96988,184.87394 C449.96988,95.76209 482.34197,48.76933 541.86888,48.76933 C601.39579,48.76933 633.76788,79.63707 633.76788,184.87394 C633.76788,283.32129 600.12261,320.79023 540.59575,320.79023 L540.5958,320.79023 Z" id="Shape" stroke="#3F3D56"></path>
                <path d="M1006.86381,264.54964 C1015.17083,267.569552 1024.47921,265.013069 1030.07849,258.173887 C1035.67778,251.334706 1036.34645,241.704832 1031.74613,234.157419 C1027.14581,226.610006 1018.28008,222.791565 1009.63541,224.6344 L1010.15634,235.3466 L1005.0882,226.16615 C1000.1141,228.503334 996.271394,232.719726 994.40453,237.88876 C993.741533,239.699404 993.338483,241.59487 993.2074,243.51862 C992.550053,252.792593 998.124522,261.377335 1006.86381,264.54964 Z" id="Path" fill="#57B894" fill-rule="nonzero"></path>
                <path d="M1031.94116,388.79306 C1030.1521,379.68279 1037.90446,371.60626 1045.56202,366.35655 C1053.21958,361.10684 1062.16702,355.94876 1064.77977,347.03971 C1068.53477,334.23584 1057.34977,322.5099 1048.64413,312.39795 C1042.18538,304.893734 1036.63883,296.650441 1032.12054,287.84057 C1030.30947,284.30807 1028.64496,280.61529 1028.16833,276.67431 C1027.48192,270.99885 1029.30526,265.35122 1031.14223,259.93758 C1037.26173,241.90312 1043.80454,224.01977 1050.77066,206.28753" id="Path" stroke="#3F3D56"></path>
                <path d="M1007.72093,261.7917 C1016.02795,264.811612 1025.33633,262.255129 1030.93561,255.415947 C1036.5349,248.576766 1037.20357,238.946892 1032.60325,231.399479 C1028.00293,223.852066 1019.1372,220.033625 1010.49253,221.87646 L1011.01346,232.58866 L1005.94531,223.40821 C1000.97121,225.745396 997.128512,229.961788 995.26165,235.13082 C994.598653,236.941464 994.195603,238.83693 994.06452,240.76068 C993.40717,250.034654 998.981639,258.619398 1007.72093,261.7917 Z" id="Path" stroke="#3F3D56"></path>
                <path d="M1029.39736,202.58816 C1031.81327,195.922201 1037.46005,190.94726 1044.37729,189.39052 L1046.0909,199.5743 L1049.2679,188.87864 C1058.31897,189.012864 1066.2451,194.982678 1068.87306,203.644873 C1071.50102,212.307069 1068.22794,221.674526 1060.77717,226.815122 C1053.32639,231.955718 1043.40713,231.690192 1036.24204,226.158349 C1029.07695,220.626506 1026.30972,211.097357 1029.39733,202.58816 L1029.39736,202.58816 Z" id="Path" fill="#57B894" fill-rule="nonzero"></path>
                <path d="M1030.54018,198.9109 C1032.95609,192.244946 1038.60288,187.27001 1045.52011,185.71327 L1047.23372,195.89705 L1050.41072,185.20138 C1059.46179,185.335604 1067.38792,191.305418 1070.01588,199.967613 C1072.64384,208.629809 1069.37076,217.997266 1061.91999,223.137862 C1054.46921,228.278458 1044.54995,228.012932 1037.38486,222.481089 C1030.21977,216.949246 1027.45254,207.420097 1030.54015,198.9109 L1030.54018,198.9109 Z" id="Path" stroke="#3F3D56"></path>
                <path d="M1044.99074,312.60435 C1054.93639,316.212016 1066.00597,311.783183 1070.71847,302.310934 C1075.43097,292.838686 1072.28633,281.338188 1063.40974,275.58168 L1060.96853,283.80094 L1059.23748,273.49712 C1059.22037,273.489044 1059.20265,273.482324 1059.18448,273.47702 C1052.19379,270.936364 1044.37861,272.319808 1038.6849,277.105859 C1032.99118,281.891911 1030.28466,289.352852 1031.58555,296.676263 C1032.88645,303.999675 1037.99696,310.072034 1044.99068,312.60435 L1044.99074,312.60435 Z" id="Path" fill="#57B894" fill-rule="nonzero"></path>
                <path d="M1045.981,308.87967 C1055.92665,312.487336 1066.99623,308.058503 1071.70873,298.586254 C1076.42123,289.114006 1073.27659,277.613508 1064.4,271.857 L1061.95879,280.07626 L1060.22774,269.77244 C1060.21063,269.764365 1060.1929,269.757645 1060.17474,269.75234 C1053.18405,267.211684 1045.36887,268.595128 1039.67516,273.381179 C1033.98144,278.167231 1031.27492,285.628172 1032.57581,292.951583 C1033.87671,300.274995 1038.98722,306.347354 1045.98094,308.87967 L1045.981,308.87967 Z" id="Path" stroke="#3F3D56"></path>
                <path d="M1023.32382,347.16698 C1025.02626,356.854158 1033.28098,364.024979 1043.11104,364.356022 C1052.9411,364.687064 1061.65954,358.087839 1064.00985,348.537144 C1066.36016,338.986449 1061.69989,329.094891 1052.83882,324.826277 C1043.97774,320.557662 1033.33796,323.078784 1027.3344,330.86961 L1036.60707,344.82615 L1023.93713,337.41847 C1022.95474,340.571929 1022.7444,343.915263 1023.32382,347.16698 L1023.32382,347.16698 Z" id="Path" fill="#57B894" fill-rule="nonzero"></path>
                <path d="M1024.18094,344.40904 C1025.88338,354.096218 1034.1381,361.267039 1043.96816,361.598082 C1053.79822,361.929124 1062.51666,355.329899 1064.86697,345.779204 C1067.21728,336.228509 1062.55701,326.336951 1053.69594,322.068337 C1044.83486,317.799722 1034.19508,320.320844 1028.19152,328.11167 L1037.46419,342.06822 L1024.79425,334.66053 C1023.81186,337.813988 1023.60152,341.157323 1024.18094,344.40904 Z" id="Path" stroke="#3F3D56"></path>
                <path d="M9.00746,315.24875 C14.46533,317.232933 20.5811437,315.553298 24.2600025,311.059823 C27.9388612,306.566347 28.3781949,300.239314 25.3556793,295.280511 C22.3331637,290.321709 16.5081829,287.812934 10.82846,289.02375 L11.17073,296.06186 L7.84086,290.03014 C4.57278277,291.565722 2.0480568,294.33598 0.8215,297.73214 C0.385898088,298.921769 0.121085176,300.167128 0.03496,301.43107 C-0.396892787,307.524207 3.2656231,313.164494 9.00746,315.24875 L9.00746,315.24875 Z" id="Path" fill="#57B894" fill-rule="nonzero"></path>
                <path d="M25.48374,396.87894 C24.30829,390.89333 29.40174,385.58694 34.43289,382.13774 C39.46404,378.68854 45.34267,375.29964 47.05931,369.44623 C49.52642,361.03385 42.17764,353.3297 36.45789,346.68596 C32.2143734,341.755553 28.5701907,336.339558 25.6016,330.55131 C24.3109904,328.277725 23.4319378,325.794127 23.00492,323.21488 C22.55392,319.486 23.75192,315.77541 24.95883,312.21854 C28.97945,300.369567 33.2781933,288.61988 37.85506,276.96948" id="Path" stroke="#3F3D56"></path>
                <path d="M9.57061,313.43673 C15.028473,315.420895 21.1442691,313.741254 24.8231159,309.247785 C28.5019627,304.754316 28.9412954,298.427299 25.9187906,293.468504 C22.8962859,288.509709 17.0713235,286.000931 11.39161,287.21173 L11.73388,294.24985 L8.404,288.21808 C5.13592211,289.753661 2.61119584,292.52392 1.38464,295.92008 C0.94904277,297.109707 0.684229986,298.355062 0.5981,299.619 C0.166218569,305.712159 3.82874584,311.352478 9.57061,313.43673 Z" id="Path" stroke="#3F3D56"></path>
                <path d="M23.81241,274.53893 C25.3997046,270.159273 29.1097481,266.890646 33.6545,265.86784 L34.78037,272.55877 L36.86774,265.53152 C42.8144375,265.619717 48.0220312,269.541988 49.7486391,275.233193 C51.4752471,280.924398 49.3247836,287.078969 44.4295023,290.456425 C39.534221,293.833881 33.0171046,293.659431 28.3095201,290.024924 C23.6019355,286.390418 21.7838076,280.129615 23.81241,274.53893 L23.81241,274.53893 Z" id="Path" fill="#57B894" fill-rule="nonzero"></path>
                <path d="M24.56327,272.1229 C26.1505674,267.743247 29.8606104,264.474624 34.40536,263.45182 L35.53123,270.14275 L37.6186,263.1155 C43.5652981,263.203699 48.7728912,267.125972 50.4994971,272.817178 C52.226103,278.508384 50.0756364,284.662955 45.1803528,288.040409 C40.2850693,291.417863 33.7679522,291.243409 29.0603695,287.608899 C24.3527868,283.974389 22.5346631,277.713584 24.56327,272.1229 L24.56327,272.1229 Z" id="Path" stroke="#3F3D56"></path>
                <path d="M34.05755,346.82157 C40.5920277,349.191901 47.8649718,346.282085 50.9611817,340.058633 C54.0573915,333.835181 51.9912901,326.279126 46.15919,322.497 L44.55527,327.8972 L43.41794,321.12741 C43.4067024,321.122108 43.3950668,321.117695 43.38314,321.11421 C38.7898796,319.443925 33.654369,320.352377 29.9128564,323.497051 C26.1713438,326.641726 24.3928681,331.544356 25.2479703,336.356496 C26.1030725,341.168636 29.4617019,345.158418 34.05755,346.82157 L34.05755,346.82157 Z" id="Path" fill="#57B894" fill-rule="nonzero"></path>
                <path d="M34.70814,344.37439 C41.2426177,346.744721 48.5155618,343.834905 51.6117717,337.611453 C54.7079815,331.388001 52.6418801,323.831946 46.80978,320.04982 L45.20586,325.45002 L44.06853,318.68022 C44.0572924,318.674918 44.0456568,318.670505 44.03373,318.66702 C36.9348358,316.091829 29.0924406,319.759016 26.51725,326.85791 C23.9420594,333.956804 27.6092458,341.799199 34.70814,344.37439 L34.70814,344.37439 Z" id="Path" stroke="#3F3D56"></path>
                <path d="M19.822,369.52985 C20.9405483,375.894501 26.3640556,380.605851 32.8225872,380.823339 C39.2811188,381.040826 45.0092848,376.705003 46.5534662,370.430018 C48.0976477,364.155033 45.0357544,357.656106 39.2138594,354.851561 C33.3919644,352.047016 26.401438,353.703456 22.457,358.82218 L28.54931,367.99189 L20.22493,363.12489 C19.5794917,365.196776 19.4413035,367.393411 19.822,369.52985 L19.822,369.52985 Z" id="Path" fill="#57B894" fill-rule="nonzero"></path>
                <path d="M20.38513,367.71783 C21.5036783,374.082481 26.9271856,378.793831 33.3857172,379.011319 C39.8442488,379.228806 45.5724148,374.892983 47.1165962,368.617998 C48.6607777,362.343013 45.5988844,355.844086 39.7769894,353.039541 C33.9550944,350.234996 26.964568,351.891436 23.02013,357.01016 L29.11244,366.17987 L20.78805,361.31287 C20.1426151,363.384757 20.0044302,365.581392 20.38513,367.71783 L20.38513,367.71783 Z" id="Path" stroke="#3F3D56"></path>
                <ellipse id="Oval" fill="#2F2E41" fill-rule="nonzero" cx="480.946" cy="164.1155" rx="17" ry="22"></ellipse>
                <ellipse id="Oval" fill="#2F2E41" fill-rule="nonzero" cx="573.446" cy="164.6155" rx="17" ry="22"></ellipse>
                <path d="M560.446,229.6155 C560.446,239.5555 546.566,247.6155 529.446,247.6155 C512.326,247.6155 498.446,239.5555 498.446,229.6155 C498.446,221.0055 508.856,213.8055 522.766,212.0455 C524.980592,211.753419 527.212238,211.609766 529.446,211.615236 C533.188922,211.603425 536.921671,212.005878 540.576,212.8155 C552.196,215.4055 560.446,221.9555 560.446,229.6155 Z" id="Path" fill="#2F2E41" fill-rule="nonzero"></path>
                <ellipse id="Oval" stroke="#3F3D56" cx="484.946" cy="159.1155" rx="17" ry="22"></ellipse>
                <ellipse id="Oval" stroke="#3F3D56" cx="577.446" cy="159.6155" rx="17" ry="22"></ellipse>
                <ellipse id="Oval" stroke="#3F3D56" cx="533.446" cy="224.6155" rx="31" ry="18"></ellipse>
                <path d="M540.946103,214.3155 C540.954102,215.573024 540.48198,216.786234 539.626,217.7075 C538.808701,218.599715 537.655957,219.110112 536.446,219.1155 L526.446,219.1155 C523.880802,219.026202 521.869788,216.88112 521.946,214.3155 C521.940781,213.340528 522.226266,212.386124 522.766,211.57416 C524.978938,211.262726 527.211263,211.10945 529.446,211.1155 C533.193418,211.103157 536.929217,211.53279 540.576,212.3955 C540.822832,213.005404 540.948505,213.657547 540.946103,214.3155 Z" id="Path" fill="#FFFFFF" fill-rule="nonzero"></path>
                <circle id="Oval" fill="#FFFFFF" fill-rule="nonzero" cx="484.946" cy="153.1155" r="5"></circle>
                <circle id="Oval" fill="#FFFFFF" fill-rule="nonzero" cx="577.946" cy="153.1155" r="5"></circle>
                <circle id="Oval" fill="#725AC1" fill-rule="nonzero" opacity="0.3" cx="582.946" cy="200.1155" r="5"></circle>
                <circle id="Oval" fill="#725AC1" fill-rule="nonzero" opacity="0.3" cx="460.946" cy="200.1155" r="5"></circle>
            </g>
            <g id="man" transform="translate(491.155762, 134.691589) rotate(-11.000000) translate(-491.155762, -134.691589) translate(360.655762, 40.191589)" fill-rule="nonzero">
                <polygon id="Path" fill="#FFD3D3" points="49.6819043 151.066294 34 150 39.2273014 174 57 166.533362"></polygon>
                <polygon id="Path" fill="#000000" opacity="0.1" points="195.202688 106.699476 158.09089 71 136.884148 87.2746867 95 137.149627 99.7717092 144.499445 150.668659 110.37502 185.129294 155 218 138.724679"></polygon>
                <path d="M198,130.367213 L193.263155,134 L154.842083,121.025766 L145.894712,117.392986 L128,121.025741 C128,121.025741 128,106.494606 144.842113,107.013577 L162.210545,111.165329 L182.736899,112.722237 L198,130.367213 Z" id="Path" fill="#FFD3D3"></path>
                <polygon id="Path" fill="#2F2E41" points="232 169.655894 220.404411 177 206.700708 177 142.925926 153.393219 49.6356217 170.180291 47 150.246198 132.384713 113 207.228214 137.655577"></polygon>
                <path d="M157.313458,75.404171 L149.329279,77 L147.589406,74.9714315 C144.773221,71.6879528 144.200369,67.0375394 146.135608,63.1695034 L146.135608,63.1695034 L168.491301,33.9126489 C168.491301,33.9126489 174.878644,19.5501878 184.991932,25.4015587 C195.10522,31.2529296 176.475479,40.8279037 176.475479,40.8279037 L165.29763,58.3820228 L166.362191,67.4250517 L157.313458,75.404171 Z" id="Path" fill="#FFD3D3"></path>
                <circle id="Oval" fill="#FFD3D3" cx="207.5" cy="20.5" r="20.5"></circle>
                <path d="M198,35.310531 L207.442624,58 L230,48.5020873 C230,48.5020873 222.655739,30.5615714 222.655739,30.0339135 C222.655739,29.5062556 198,35.310531 198,35.310531 Z" id="Path" fill="#FFD3D3"></path>
                <path d="M261,102.767378 C261,115.193616 259.042992,127.542226 255.201686,139.35902 L253.661105,144.099961 L246.274713,177.888237 L238.36072,180 L232.557126,172.608816 L220.94994,164.16175 L212.508344,150.435244 L205.269695,138.366499 L203.011558,134.596975 L195.097564,95.0013342 L165.024394,78.1072026 L155,76.523377 L157.1104,70.7160184 L166.079579,58.5733956 L175.048769,57.5175076 L177.686765,55.4057444 L179.797166,56.461626 L188.238755,51.7101491 L190.876757,52.7660307 L206.303758,54.2020172 L215.673948,52.2380931 L229.148827,45 L234.667533,45.9027906 L253.661093,61.7410405 C258.516642,74.8735358 261.001568,88.7648997 261,102.767378 L261,102.767378 Z" id="Path" fill="#725AC1"></path>
                <path d="M38.9671598,159.483138 C38.9671598,159.483138 43.7484755,151.524254 41.7289529,150.59507 C39.7094302,149.665886 31.1328341,145.961666 31.1328341,145.961666 L18.5554048,141.867913 C18.5554048,141.867913 0.406930806,115.377105 0.00857547986,138.413892 C-0.389779846,161.45068 13.2228791,166.988255 13.2228791,166.988255 C13.2228791,166.988255 25.3637345,192.64994 32.240997,188.557905 C39.1182595,184.46587 46,170.575094 46,170.575094 C46,170.575094 33.5981707,164.027255 38.9671598,159.483138 Z" id="Path" fill="#2F2E41"></path>
                <polygon id="Path" fill="#000000" opacity="0.1" points="255 98.1330549 234.802213 111.222673 204.653625 138 202.378587 134.261465 196 102.844988 197.594647 102.844988 214.072448 73"></polygon>
                <polygon id="Path" fill="#725AC1" points="214.331188 70 197.957558 99.8357052 192.14791 99.8357052 188.450803 110.305029 180 112.39864 202.711254 137 234.929901 108.210784 255 95.1252373"></polygon>
            </g>
            <path d="M545.215504,16.012273 C544.398015,15.9532091 543.57918,16.1080693 542.843615,16.4608505 C542.178545,16.9344669 541.6304,17.5469863 541.239236,18.2536486 C539.436017,20.8984505 537.085449,23.1462982 534.338485,24.8528354 C532.288022,26.1245532 529.681169,27.7101847 530.031983,30.0548774 C530.22242,30.841013 530.561355,31.5856877 531.03145,32.2508077 C532.929555,35.51617 533.685183,39.2955245 533.18399,43.0169651 L538.822068,35.0262456 C539.717061,33.7577919 541.271814,32.3259276 542.623069,33.1225257 C543.075514,33.3892476 543.37259,33.8676371 543.843675,34.1016666 C544.967754,34.6601007 546.163606,33.5925145 547.158633,32.8363052 C550.589746,30.228693 555.469117,30.9118325 559.738796,31.7242987 C561.754497,32.1078635 563.968521,32.6110944 565.160098,34.2420911 C567.140268,36.9524935 565.072591,40.8688222 566.228278,44 C566.881869,43.553809 567.32225,42.8685197 567.448978,42.1004318 C569.060845,42.1490152 571.03587,41.994492 571.726497,40.5735366 C571.936555,40.0166719 572.048494,39.4291729 572.057578,38.8359016 C572.31106,36.4490564 573.507646,34.2715309 574.30035,31.9998164 C575.093055,29.7281019 575.437737,27.0657962 574.099989,25.0516699 C573.610598,24.3692311 573.019938,23.7614751 572.347354,23.2483064 C564.755876,17.0287276 554.774772,16.0030419 545.215504,16.012273 Z" id="Path" fill="#FBD157" fill-rule="nonzero"></path>
            <ellipse id="Oval" fill="#FBD157" fill-rule="nonzero" cx="566" cy="11.5" rx="9" ry="8.5"></ellipse>
            <path d="M558.047478,14.6194963 C555.901681,9.02755231 558.324558,2.7177997 563.661208,0 C563.26822,0.105846789 562.880958,0.231911764 562.500966,0.377691756 C556.474312,2.69641654 553.46605,9.46069125 555.780098,15.4900048 C558.094146,21.5193183 564.855144,24.532896 570.88509,22.2227487 C571.265008,22.0767773 571.63714,21.9112891 572,21.7269447 C566.215841,23.2787406 560.193954,20.2111771 558.047478,14.6194963 Z" id="Path" fill="#FBD157" fill-rule="nonzero"></path>
        </g>
        <path d="M639.517094,148.886637 C638.519841,148.804773 632.73893,152.250696 632.190862,153.201601 C630.095365,156.880704 630.865262,156.940593 627.466706,159.466325 C624.991289,161.279442 623.550876,168.404144 624.126144,169.372568 C625.255065,175.017254 626.509987,178.827284 625.897034,184.086495 C628.165861,180.288921 628.120912,177.484974 630.389739,173.687435 C631.470217,171.878934 633.347191,169.837487 634.978496,170.973224 C635.524705,171.353505 635.883355,172.035559 636.452074,172.369226 C637.80911,173.165405 639.252808,171.643287 640.454046,170.565151 C644.596258,166.847379 650.486869,167.821355 655.641436,168.979724 C658.074893,169.526585 660.747769,170.244059 662.186295,172.569431 C664.077658,175.626806 662.04532,178.715853 661.113415,182.172519 C660.958989,182.770368 661.572131,184.794381 662.186295,184.729566 C663.732948,184.577026 665.336901,185.408152 665.428427,184.729566 C667.374355,184.798813 667.516183,182.861259 668.349947,180.835386 C668.604772,180.033835 669.759094,178.637322 669.769272,177.796315 C670.075284,174.393298 672.274608,171.538757 672.274608,167.975382 C672.274608,164.412008 671.38426,163.13845 669.769272,160.266835 C669.192899,159.3114 669.176642,158.019575 668.349947,157.270064 C659.185171,148.402554 649.982513,144.31987 639.517094,148.886637 Z" id="Path" fill="#FBD157" fill-rule="nonzero"></path>
    </g>
</svg>