<?xml version="1.0" encoding="UTF-8"?>
<svg width="1300px" height="1000px" viewBox="0 0 1300 1000" version="1.1" xmlns="http://www.w3.org/2000/svg" xmlns:xlink="http://www.w3.org/1999/xlink">
    <!-- Generator: Sketch 64 (93537) - https://sketch.com -->
    <title>Artboard</title>
    <desc>Created with Sketch.</desc>
    <g id="Artboard" stroke="none" stroke-width="1" fill="none" fill-rule="evenodd">
        <g id="surfer" transform="translate(83.000000, 104.000000)">
            <path d="M152.05,310.7 C152.05,310.7 149.55,302.22 152.52,295.98 C153.783631,293.368303 154.162731,290.416236 153.6,287.57 C153.325459,286.219587 152.92711,284.897335 152.41,283.62" id="Path" fill="#725AC1" fill-rule="nonzero"></path>
            <path d="M154.26,279.68 C154.26,280.68 152.38,283.68 152.38,283.68 C152.38,283.68 150.49,280.68 150.49,279.68 C150.438528,278.973782 150.786127,278.298035 151.390587,277.929223 C151.995046,277.560411 152.754954,277.560411 153.359413,277.929223 C153.963873,278.298035 154.311472,278.973782 154.26,279.68 L154.26,279.68 Z" id="Path" fill="#725AC1" fill-rule="nonzero"></path>
            <path d="M157.37,285.44 C156.81,286.31 153.59,287.82 153.59,287.82 C153.59,287.82 153.65,284.26 154.21,283.39 C154.776092,282.51739 155.94239,282.268908 156.815,282.835 C157.68761,283.401092 157.936092,284.56739 157.37,285.44 L157.37,285.44 Z" id="Path" fill="#725AC1" fill-rule="nonzero"></path>
            <path d="M157.24,295.28 C156.31,295.75 152.77,295.42 152.77,295.42 C152.77,295.42 154.61,292.42 155.54,291.92 C156.140206,291.616324 156.856829,291.655922 157.419923,292.023878 C157.983017,292.391834 158.307035,293.032247 158.269923,293.703878 C158.232811,294.37551 157.840206,294.976324 157.24,295.28 L157.24,295.28 Z" id="Path" fill="#725AC1" fill-rule="nonzero"></path>
            <path d="M155.46,302.7 C154.62,303.32 151.08,303.6 151.08,303.6 C151.08,303.6 152.38,300.29 153.22,299.67 C154.048416,299.163115 155.12657,299.370649 155.707621,300.148843 C156.288672,300.927036 156.181351,302.019725 155.46,302.67 L155.46,302.7 Z" id="Path" fill="#725AC1" fill-rule="nonzero"></path>
            <path d="M149.63,288.02 C150.38,288.74 153.85,289.49 153.85,289.49 C153.85,289.49 153,286.04 152.26,285.32 C151.514416,284.593746 150.321254,284.609416 149.595,285.355 C148.868746,286.100584 148.884416,287.293746 149.63,288.02 L149.63,288.02 Z" id="Path" fill="#725AC1" fill-rule="nonzero"></path>
            <path d="M147.66,296.73 C148.59,297.19 152.13,296.87 152.13,296.87 C152.13,296.87 150.29,293.87 149.36,293.36 C148.44031,292.956679 147.365789,293.343021 146.91349,294.239639 C146.46119,295.136256 146.789062,296.230036 147.66,296.73 L147.66,296.73 Z" id="Path" fill="#725AC1" fill-rule="nonzero"></path>
            <path d="M146.91,305.45 C147.74,306.07 151.29,306.35 151.29,306.35 C151.29,306.35 149.98,303.04 149.15,302.43 C148.62031,301.952501 147.866049,301.815815 147.202483,302.077074 C146.538916,302.338332 146.0803,302.95255 146.018327,303.662997 C145.956353,304.373445 146.301692,305.057793 146.91,305.43 L146.91,305.45 Z" id="Path" fill="#725AC1" fill-rule="nonzero"></path>
            <g id="Group" opacity="0.7" transform="translate(146.000000, 277.000000)" fill="#FFFFFF" fill-rule="nonzero">
                <path d="M6.05,33.7 C6.05,33.7 3.55,25.22 6.52,18.98 C7.78363103,16.3683029 8.16273118,13.4162359 7.6,10.57 C7.32545925,9.21958749 6.92710969,7.89733478 6.41,6.62" id="Path"></path>
                <path d="M8.26,2.68 C8.26,3.68 6.38,6.68 6.38,6.68 C6.38,6.68 4.49,3.68 4.49,2.68 C4.438528,1.97378176 4.78612725,1.29803465 5.39058675,0.92922267 C5.99504625,0.560410688 6.75495375,0.560410688 7.35941325,0.92922267 C7.96387275,1.29803465 8.311472,1.97378176 8.26,2.68 L8.26,2.68 Z" id="Path"></path>
                <path d="M11.37,8.44 C10.81,9.31 7.59,10.82 7.59,10.82 C7.59,10.82 7.65,7.26 8.21,6.39 C8.77609187,5.5173901 9.9423901,5.26890813 10.815,5.835 C11.6876099,6.40109187 11.9360919,7.5673901 11.37,8.44 L11.37,8.44 Z" id="Path"></path>
                <path d="M11.24,18.28 C10.31,18.75 6.77,18.42 6.77,18.42 C6.77,18.42 8.61,15.42 9.54,14.92 C10.1402062,14.6163242 10.8568287,14.6559224 11.4199228,15.0238783 C11.9830168,15.3918342 12.307035,16.0322467 12.2699228,16.7038784 C12.2328106,17.3755101 11.8402063,17.9763243 11.24,18.28 L11.24,18.28 Z" id="Path"></path>
                <path d="M9.46,25.7 C8.62,26.32 5.08,26.6 5.08,26.6 C5.08,26.6 6.38,23.29 7.22,22.67 C8.04841628,22.1631153 9.12656985,22.3706495 9.70762101,23.148843 C10.2886722,23.9270365 10.1813514,25.0197248 9.46,25.67 L9.46,25.7 Z" id="Path"></path>
                <path d="M3.63,11.02 C4.38,11.74 7.85,12.49 7.85,12.49 C7.85,12.49 7,9.04 6.26,8.32 C5.51441559,7.59374555 4.32125445,7.60941559 3.595,8.355 C2.86874555,9.10058441 2.88441559,10.2937456 3.63,11.02 L3.63,11.02 Z" id="Path"></path>
                <path d="M1.66,19.73 C2.59,20.19 6.13,19.87 6.13,19.87 C6.13,19.87 4.29,16.87 3.36,16.36 C2.44031012,15.9566792 1.36578895,16.3430215 0.9134895,17.2396386 C0.461190049,18.1362558 0.78906166,19.2300365 1.66,19.73 L1.66,19.73 Z" id="Path"></path>
                <path d="M0.91,28.45 C1.74,29.07 5.29,29.35 5.29,29.35 C5.29,29.35 3.98,26.04 3.15,25.43 C2.62030989,24.9525013 1.86604947,24.8158153 1.20248284,25.0770737 C0.538916206,25.338332 0.0803003508,25.9525497 0.0183265041,26.6629973 C-0.0436473426,27.373445 0.301691859,28.0577933 0.91,28.43 L0.91,28.45 Z" id="Path"></path>
            </g>
            <path d="M399.86,274.68 C399.86,274.68 397.36,266.19 400.33,259.95 C401.595045,257.338724 401.974205,254.386186 401.41,251.54 C401.135306,250.192875 400.736952,248.873956 400.22,247.6" id="Path" fill="#725AC1" fill-rule="nonzero"></path>
            <path d="M402.07,243.65 C402.07,244.65 400.19,247.71 400.19,247.71 C400.19,247.71 398.3,244.71 398.3,243.65 C398.372002,242.662107 399.194486,241.897386 400.185,241.897386 C401.175514,241.897386 401.997998,242.662107 402.07,243.65 L402.07,243.65 Z" id="Path" fill="#725AC1" fill-rule="nonzero"></path>
            <path d="M405.18,249.41 C404.62,250.28 401.4,251.79 401.4,251.79 C401.4,251.79 401.46,248.24 402.02,247.36 C402.586092,246.48739 403.75239,246.238908 404.625,246.805 C405.49761,247.371092 405.746092,248.53739 405.18,249.41 L405.18,249.41 Z" id="Path" fill="#725AC1" fill-rule="nonzero"></path>
            <path d="M405.05,259.25 C404.12,259.72 400.58,259.4 400.58,259.4 C400.58,259.4 402.42,256.4 403.35,255.89 C404.277838,255.420558 405.410558,255.792162 405.88,256.72 C406.349442,257.647838 405.977838,258.780558 405.05,259.25 L405.05,259.25 Z" id="Path" fill="#725AC1" fill-rule="nonzero"></path>
            <path d="M403.27,266.68 C402.43,267.29 398.89,267.57 398.89,267.57 C398.89,267.57 400.19,264.27 401.03,263.65 C401.858416,263.143115 402.93657,263.350649 403.517621,264.128843 C404.098672,264.907036 403.991351,265.999725 403.27,266.65 L403.27,266.68 Z" id="Path" fill="#725AC1" fill-rule="nonzero"></path>
            <path d="M397.44,251.99 C398.19,252.72 401.66,253.47 401.66,253.47 C401.66,253.47 400.81,250.02 400.07,249.29 C399.587691,248.820196 398.891382,248.643387 398.243366,248.826177 C397.595349,249.008966 397.094074,249.523583 396.928366,250.176177 C396.762658,250.82877 396.957691,251.520196 397.44,251.99 L397.44,251.99 Z" id="Path" fill="#725AC1" fill-rule="nonzero"></path>
            <path d="M395.47,260.7 C396.4,261.17 399.94,260.84 399.94,260.84 C399.94,260.84 398.1,257.84 397.17,257.34 C396.569794,257.036324 395.853171,257.075922 395.290077,257.443878 C394.726983,257.811834 394.402965,258.452247 394.440077,259.123878 C394.47719,259.79551 394.869794,260.396324 395.47,260.7 Z" id="Path" fill="#725AC1" fill-rule="nonzero"></path>
            <path d="M394.72,269.43 C395.55,270.05 399.1,270.32 399.1,270.32 C399.1,270.32 397.79,267.02 396.96,266.4 C396.43031,265.922501 395.676049,265.785815 395.012483,266.047074 C394.348916,266.308332 393.8903,266.92255 393.828327,267.632997 C393.766353,268.343445 394.111692,269.027793 394.72,269.4 L394.72,269.43 Z" id="Path" fill="#725AC1" fill-rule="nonzero"></path>
            <g id="Group" opacity="0.7" transform="translate(393.000000, 241.000000)" fill="#FFFFFF" fill-rule="nonzero">
                <path d="M6.86,33.68 C6.86,33.68 4.36,25.19 7.33,18.95 C8.59504469,16.3387236 8.97420529,13.386186 8.41,10.54 C8.13530602,9.19287492 7.73695225,7.8739557 7.22,6.6" id="Path"></path>
                <path d="M9.07,2.65 C9.07,3.65 7.19,6.71 7.19,6.71 C7.19,6.71 5.3,3.71 5.3,2.65 C5.37200161,1.66210657 6.19448616,0.897386317 7.185,0.897386317 C8.17551384,0.897386317 8.99799839,1.66210657 9.07,2.65 L9.07,2.65 Z" id="Path"></path>
                <path d="M12.18,8.41 C11.62,9.28 8.4,10.79 8.4,10.79 C8.4,10.79 8.46,7.24 9.02,6.36 C9.58609187,5.4873901 10.7523901,5.23890813 11.625,5.805 C12.4976099,6.37109187 12.7460919,7.5373901 12.18,8.41 L12.18,8.41 Z" id="Path"></path>
                <path d="M12.05,18.25 C11.12,18.72 7.58,18.4 7.58,18.4 C7.58,18.4 9.42,15.4 10.35,14.89 C11.2778384,14.4205581 12.4105578,14.7921618 12.8799998,15.7200001 C13.3494418,16.6478384 12.9778383,17.7805579 12.05,18.25 L12.05,18.25 Z" id="Path"></path>
                <path d="M10.27,25.68 C9.43,26.29 5.89,26.57 5.89,26.57 C5.89,26.57 7.19,23.27 8.03,22.65 C8.85841628,22.1431153 9.93656985,22.3506495 10.517621,23.128843 C11.0986722,23.9070365 10.9913514,24.9997248 10.27,25.65 L10.27,25.68 Z" id="Path"></path>
                <path d="M4.44,10.99 C5.19,11.72 8.66,12.47 8.66,12.47 C8.66,12.47 7.81,9.02 7.07,8.29 C6.58769145,7.82019575 5.89138239,7.64338727 5.2433657,7.82617659 C4.59534902,8.00896592 4.09407385,8.52358302 3.9283657,9.17617659 C3.76265756,9.82877017 3.95769145,10.5201957 4.44,10.99 L4.44,10.99 Z" id="Path"></path>
                <path d="M2.47,19.7 C3.4,20.17 6.94,19.84 6.94,19.84 C6.94,19.84 5.1,16.84 4.17,16.34 C3.56979381,16.0363242 2.85317133,16.0759225 2.29007732,16.4438784 C1.72698331,16.8118343 1.40296514,17.4522467 1.44007732,18.1238784 C1.4771895,18.7955101 1.86979381,19.3963242 2.47,19.7 Z" id="Path"></path>
                <path d="M1.72,28.43 C2.55,29.05 6.1,29.32 6.1,29.32 C6.1,29.32 4.79,26.02 3.96,25.4 C3.43030989,24.9225013 2.67604947,24.7858153 2.01248284,25.0470737 C1.34891621,25.308332 0.890300351,25.9225497 0.828326504,26.6329973 C0.766352657,27.343445 1.11169186,28.0277933 1.72,28.4 L1.72,28.43 Z" id="Path"></path>
            </g>
            <path d="M626.6,299.6 C626.6,299.6 624.95,293.99 626.91,289.86 C627.747617,288.13409 628.000362,286.182339 627.63,284.3 C627.450232,283.406865 627.185702,282.532909 626.84,281.69" id="Path" fill="#725AC1" fill-rule="nonzero"></path>
            <path d="M628.06,279.08 C627.78157,280.029775 627.363682,280.932953 626.82,281.76 C626.272819,280.933552 625.851547,280.030345 625.57,279.08 C625.527707,278.608565 625.755322,278.153678 626.157997,277.904895 C626.560672,277.656113 627.069328,277.656113 627.472003,277.904895 C627.874678,278.153678 628.102293,278.608565 628.06,279.08 L628.06,279.08 Z" id="Path" fill="#725AC1" fill-rule="nonzero"></path>
            <path d="M630.12,282.89 C629.368928,283.534133 628.526416,284.06323 627.62,284.46 C627.610636,283.468407 627.748814,282.480936 628.03,281.53 C628.256428,281.120338 628.692755,280.871506 629.160627,280.885218 C629.6285,280.898929 630.049506,281.172885 630.251556,281.595104 C630.453605,282.017323 630.402836,282.517043 630.12,282.89 L630.12,282.89 Z" id="Path" fill="#725AC1" fill-rule="nonzero"></path>
            <path d="M630,289.4 C629.026881,289.579055 628.032224,289.6094 627.05,289.49 C627.541749,288.630312 628.15848,287.848445 628.88,287.17 C629.487582,286.909431 630.192999,287.167016 630.489711,287.757791 C630.786423,288.348565 630.571819,289.068224 630,289.4 L630,289.4 Z" id="Path" fill="#725AC1" fill-rule="nonzero"></path>
            <path d="M628.86,294.31 C627.92852,294.651442 626.950844,294.850348 625.96,294.9 C626.29757,293.967804 626.77284,293.091418 627.37,292.3 C627.922582,291.944976 628.655674,292.078161 629.048068,292.604864 C629.440462,293.131567 629.358301,293.872116 628.86,294.3 L628.86,294.31 Z" id="Path" fill="#725AC1" fill-rule="nonzero"></path>
            <path d="M625,284.59 C625.878288,285.060996 626.822051,285.398054 627.8,285.59 C627.585371,284.622561 627.228134,283.692397 626.74,282.83 C626.432932,282.484838 625.959443,282.338999 625.511387,282.451577 C625.063332,282.564154 624.71501,282.91648 624.607561,283.365792 C624.500111,283.815105 624.651351,284.286897 625,284.59 L625,284.59 Z" id="Path" fill="#725AC1" fill-rule="nonzero"></path>
            <path d="M623.7,290.35 C624.689139,290.53531 625.700717,290.569029 626.7,290.45 C626.207971,289.587762 625.587528,288.805464 624.86,288.13 C624.246964,287.820721 623.499279,288.066964 623.19,288.68 C622.880721,289.293036 623.126964,290.040721 623.74,290.35 L623.7,290.35 Z" id="Path" fill="#725AC1" fill-rule="nonzero"></path>
            <path d="M623.2,296.13 C624.131227,296.472332 625.109041,296.671266 626.1,296.72 C625.763849,295.788249 625.284787,294.914467 624.68,294.13 C624.127715,293.721309 623.348691,293.837715 622.94,294.39 C622.531309,294.942285 622.647715,295.721309 623.2,296.13 L623.2,296.13 Z" id="Path" fill="#725AC1" fill-rule="nonzero"></path>
            <g id="Group" opacity="0.7" transform="translate(622.000000, 277.000000)" fill="#FFFFFF" fill-rule="nonzero">
                <path d="M4.6,22.6 C4.6,22.6 2.95,16.99 4.91,12.86 C5.74761748,11.1340903 6.0003623,9.18233871 5.63,7.3 C5.45023228,6.40686543 5.18570153,5.53290939 4.84,4.69" id="Path"></path>
                <path d="M6.06,2.08 C5.78157011,3.02977508 5.36368165,3.93295335 4.82,4.76 C4.27281869,3.93355167 3.85154691,3.03034497 3.57,2.08 C3.52770655,1.60856458 3.75532196,1.15367815 4.1579971,0.90489547 C4.56067224,0.656112791 5.06932776,0.656112791 5.4720029,0.90489547 C5.87467804,1.15367815 6.10229345,1.60856458 6.06,2.08 L6.06,2.08 Z" id="Path"></path>
                <path d="M8.12,5.89 C7.36892784,6.53413294 6.52641623,7.06323023 5.62,7.46 C5.61063587,6.46840702 5.74881443,5.48093586 6.03,4.53 C6.25642819,4.12033798 6.69275493,3.87150647 7.16062745,3.88521774 C7.62849996,3.89892902 8.04950612,4.17288517 8.25155555,4.59510397 C8.45360499,5.01732277 8.40283565,5.51704332 8.12,5.89 L8.12,5.89 Z" id="Path"></path>
                <path d="M8,12.4 C7.02688096,12.5790549 6.03222446,12.6094004 5.05,12.49 C5.5417487,11.6303125 6.15847999,10.8484455 6.88,10.17 C7.48758229,9.90943114 8.1929995,10.1670163 8.48971133,10.7577907 C8.78642317,11.3485652 8.57181898,12.0682238 8,12.4 L8,12.4 Z" id="Path"></path>
                <path d="M6.86,17.31 C5.9285203,17.6514419 4.95084394,17.8503485 3.96,17.9 C4.29756953,16.9678041 4.77284037,16.0914182 5.37,15.3 C5.92258221,14.9449761 6.6556743,15.0781612 7.04806811,15.6048643 C7.44046192,16.1315674 7.35830122,16.8721157 6.86,17.3 L6.86,17.31 Z" id="Path"></path>
                <path d="M3,7.59 C3.87828847,8.06099619 4.8220507,8.39805413 5.8,8.59 C5.58537103,7.62256093 5.22813424,6.69239719 4.74,5.83 C4.43293222,5.48483812 3.95944289,5.33899938 3.51138748,5.45157688 C3.06333207,5.56415439 2.71501045,5.9164797 2.60756077,6.36579241 C2.50011108,6.81510512 2.65135143,7.28689685 3,7.59 L3,7.59 Z" id="Path"></path>
                <path d="M1.7,13.35 C2.6891388,13.5353099 3.70071657,13.5690291 4.7,13.45 C4.20797071,12.5877615 3.58752772,11.8054638 2.86,11.13 C2.24696393,10.8207205 1.49927946,11.0669639 1.19,11.68 C0.88072054,12.2930361 1.12696393,13.0407205 1.74,13.35 L1.7,13.35 Z" id="Path"></path>
                <path d="M1.2,19.13 C2.13122747,19.4723315 3.10904063,19.6712659 4.1,19.72 C3.7638494,18.7882493 3.28478744,17.9144672 2.68,17.13 C2.12771525,16.7213093 1.34869071,16.8377153 0.94,17.39 C0.531309285,17.9422847 0.64771525,18.7213093 1.2,19.13 L1.2,19.13 Z" id="Path"></path>
            </g>
            <path d="M158.27,207.31 L158.27,256.65 C158.27,264.78 148.22,268.78 142.76,262.76 L142.57,262.55 C140.8,260.55 138.38,258.16 135.95,259.21 C135.238994,259.613728 134.569144,260.085972 133.95,260.62 C134.439036,261.695802 134.859868,262.801322 135.21,263.93 C137.31,270.93 135.67,278.4 133.43,285.32 C131.19,292.24 128.31,299.08 127.93,306.32 C127.848195,309.810814 128.052209,313.302467 128.54,316.76 C129.3,323.35 130.09,330.06 132.84,336.09 C134.35,339.39 136.48,342.72 136.03,346.32 C124.168473,346.84768 112.304074,345.342646 100.95,341.87 C108.8,333.95 108.79,321.4 108.27,310.27 L107,283.37 C106.87,280.74 106.73,278.03 105.53,275.68 C103.89,272.49 100.53,270.49 97.01,269.68 C93.4754825,269.048187 89.868227,268.930303 86.3,269.33 C86.0338369,267.93173 86.2976271,266.484448 87.04,265.27 C92.6308711,267.685461 98.607857,269.084042 104.69,269.4 C105.454913,269.642833 106.291262,269.459863 106.884902,268.919816 C107.478542,268.379768 107.739593,267.564409 107.57,266.78 C107.79934,262.324948 107.391901,257.859961 106.36,253.52 L106.36,253.52 C103.13,254.29 100.27,256.84 96.95,256.59 C92.59,256.26 90.01,251.38 85.95,249.88 C82.8,248.72 79.34,249.74 76.05,250.34 C72.76,250.94 68.84,250.9 66.67,248.34 C63.94,245.11 65.67,239.99 63.88,236.15 C61.36,230.67 53.74,230.57 47.75,231.32 C50.1514818,227.702671 53.7194689,225.016976 57.86,223.71 C55.69,219.83 47.95,220.09 48.36,215.42 C48.4842242,214.312468 49.0195055,213.291865 49.86,212.56 C52.08,210.52 54.3066667,208.486667 56.54,206.46 L46.63,202.71 C43.83,201.66 40.63,200.18 41,196.5 C41.1757129,195.120974 41.8179433,193.843571 42.82,192.88 L43.45,192.24 C46.0784963,189.655409 49.6237302,188.21718 53.31,188.24 L111.31,171.5 C122.446646,168.287233 134.4461,170.509044 143.694129,177.496226 C152.942159,184.483407 158.357851,195.419294 158.310314,207.01 L158.27,207.31 Z" id="Path" fill="#725AC1" fill-rule="nonzero"></path>
            <path d="M158.27,207.31 L158.27,256.65 C158.27,264.78 148.22,268.78 142.76,262.76 L142.57,262.55 C140.8,260.55 138.38,258.16 135.95,259.21 C135.238994,259.613728 134.569144,260.085972 133.95,260.62 C134.439036,261.695802 134.859868,262.801322 135.21,263.93 C137.31,270.93 135.67,278.4 133.43,285.32 C131.19,292.24 128.31,299.08 127.93,306.32 C127.848195,309.810814 128.052209,313.302467 128.54,316.76 C129.3,323.35 130.09,330.06 132.84,336.09 C134.35,339.39 136.48,342.72 136.03,346.32 C124.168473,346.84768 112.304074,345.342646 100.95,341.87 C108.8,333.95 108.79,321.4 108.27,310.27 L107,283.37 C106.87,280.74 106.73,278.03 105.53,275.68 C103.89,272.49 100.53,270.49 97.01,269.68 C93.4754825,269.048187 89.868227,268.930303 86.3,269.33 C86.0338369,267.93173 86.2976271,266.484448 87.04,265.27 C92.6308711,267.685461 98.607857,269.084042 104.69,269.4 C105.454913,269.642833 106.291262,269.459863 106.884902,268.919816 C107.478542,268.379768 107.739593,267.564409 107.57,266.78 C107.79934,262.324948 107.391901,257.859961 106.36,253.52 L106.36,253.52 C103.13,254.29 100.27,256.84 96.95,256.59 C92.59,256.26 90.01,251.38 85.95,249.88 C82.8,248.72 79.34,249.74 76.05,250.34 C72.76,250.94 68.84,250.9 66.67,248.34 C63.94,245.11 65.67,239.99 63.88,236.15 C61.36,230.67 53.74,230.57 47.75,231.32 C50.1514818,227.702671 53.7194689,225.016976 57.86,223.71 C55.69,219.83 47.95,220.09 48.36,215.42 C48.4842242,214.312468 49.0195055,213.291865 49.86,212.56 C52.08,210.52 54.3066667,208.486667 56.54,206.46 L46.63,202.71 C43.83,201.66 40.63,200.18 41,196.5 C41.1757129,195.120974 41.8179433,193.843571 42.82,192.88 L43.45,192.24 C46.0784963,189.655409 49.6237302,188.21718 53.31,188.24 L111.31,171.5 C122.446646,168.287233 134.4461,170.509044 143.694129,177.496226 C152.942159,184.483407 158.357851,195.419294 158.310314,207.01 L158.27,207.31 Z" id="Path" fill="#FFFFFF" fill-rule="nonzero" opacity="0.7"></path>
            <path d="M623.55,230.01 L623.55,257.35 C623.517919,259.374551 622.267981,261.179889 620.384243,261.922432 C618.500506,262.664975 616.354899,262.198114 614.95,260.74 L614.85,260.62 C613.85,259.52 612.53,258.19 611.18,258.77 C610.783922,258.990756 610.411915,259.252166 610.07,259.55 C610.33868,260.149297 610.572405,260.76366 610.77,261.39 C611.93,265.24 611.02,269.39 609.77,273.24 C608.52,277.09 606.94,280.86 606.77,284.89 C606.723503,286.82275 606.837225,288.75603 607.11,290.67 C607.53,294.32 607.97,298.04 609.49,301.38 C610.33,303.21 611.49,305.06 611.26,307.05 C604.686274,307.348259 598.110262,306.512726 591.82,304.58 C596.17,300.2 596.17,293.24 595.88,287.07 C595.64,282.103333 595.406667,277.133333 595.18,272.16 C595.214049,270.697733 594.934442,269.24514 594.36,267.9 C593.345315,266.156854 591.622479,264.941378 589.64,264.57 C587.682784,264.221554 585.685507,264.15756 583.71,264.38 C583.560947,263.605116 583.707201,262.802503 584.12,262.13 C587.216896,263.47183 590.529319,264.247438 593.9,264.42 C594.324547,264.550991 594.786719,264.446784 595.113977,264.146283 C595.441235,263.845782 595.58439,263.394153 595.49,262.96 C595.621957,260.494364 595.399695,258.022545 594.83,255.62 L594.83,255.62 C593.04,256.04 591.45,257.46 589.61,257.32 C587.2,257.13 585.76,254.43 583.49,253.6 C581.74,252.96 579.83,253.52 578,253.85 C576.17,254.18 574,254.16 572.81,252.75 C571.29,250.96 572.24,248.12 571.26,245.99 C569.86,242.99 565.64,242.9 562.32,243.31 C563.651419,241.308618 565.627521,239.823013 567.92,239.1 C566.72,236.94 562.43,237.1 562.65,234.51 C562.722163,233.893868 563.021714,233.32686 563.49,232.92 L567.19,229.54 L561.7,227.46 C560.15,226.88 558.36,226.06 558.58,224.02 C558.675219,223.258716 559.028105,222.552946 559.58,222.02 L559.94,221.66 C561.390667,220.219608 563.355741,219.417023 565.4,219.43 L597.51,210.19 C603.675774,208.425431 610.31246,209.664602 615.426061,213.535204 C620.539661,217.405807 623.534213,223.456741 623.51,229.87 L623.55,230.01 Z" id="Path" fill="#725AC1" fill-rule="nonzero"></path>
            <path d="M623.55,230.01 L623.55,257.35 C623.517919,259.374551 622.267981,261.179889 620.384243,261.922432 C618.500506,262.664975 616.354899,262.198114 614.95,260.74 L614.85,260.62 C613.85,259.52 612.53,258.19 611.18,258.77 C610.783922,258.990756 610.411915,259.252166 610.07,259.55 C610.33868,260.149297 610.572405,260.76366 610.77,261.39 C611.93,265.24 611.02,269.39 609.77,273.24 C608.52,277.09 606.94,280.86 606.77,284.89 C606.723503,286.82275 606.837225,288.75603 607.11,290.67 C607.53,294.32 607.97,298.04 609.49,301.38 C610.33,303.21 611.49,305.06 611.26,307.05 C604.686274,307.348259 598.110262,306.512726 591.82,304.58 C596.17,300.2 596.17,293.24 595.88,287.07 C595.64,282.103333 595.406667,277.133333 595.18,272.16 C595.214049,270.697733 594.934442,269.24514 594.36,267.9 C593.345315,266.156854 591.622479,264.941378 589.64,264.57 C587.682784,264.221554 585.685507,264.15756 583.71,264.38 C583.560947,263.605116 583.707201,262.802503 584.12,262.13 C587.216896,263.47183 590.529319,264.247438 593.9,264.42 C594.324547,264.550991 594.786719,264.446784 595.113977,264.146283 C595.441235,263.845782 595.58439,263.394153 595.49,262.96 C595.621957,260.494364 595.399695,258.022545 594.83,255.62 L594.83,255.62 C593.04,256.04 591.45,257.46 589.61,257.32 C587.2,257.13 585.76,254.43 583.49,253.6 C581.74,252.96 579.83,253.52 578,253.85 C576.17,254.18 574,254.16 572.81,252.75 C571.29,250.96 572.24,248.12 571.26,245.99 C569.86,242.99 565.64,242.9 562.32,243.31 C563.651419,241.308618 565.627521,239.823013 567.92,239.1 C566.72,236.94 562.43,237.1 562.65,234.51 C562.722163,233.893868 563.021714,233.32686 563.49,232.92 L567.19,229.54 L561.7,227.46 C560.15,226.88 558.36,226.06 558.58,224.02 C558.675219,223.258716 559.028105,222.552946 559.58,222.02 L559.94,221.66 C561.390667,220.219608 563.355741,219.417023 565.4,219.43 L597.51,210.19 C603.675774,208.425431 610.31246,209.664602 615.426061,213.535204 C620.539661,217.405807 623.534213,223.456741 623.51,229.87 L623.55,230.01 Z" id="Path" fill="#FFFFFF" fill-rule="nonzero" opacity="0.7"></path>
            <path d="M970.23,214.02 L970.23,233.19 C970.242166,234.607526 971.112947,235.875996 972.431395,236.396784 C973.749844,236.917571 975.252415,236.586574 976.23,235.56 L976.3,235.48 C976.99,234.71 977.93,233.77 978.88,234.18 C979.15622,234.339177 979.417306,234.523277 979.66,234.73 C979.467333,235.148278 979.303615,235.579291 979.17,236.02 C978.35,238.73 978.99,241.65 979.87,244.35 C980.75,247.05 981.87,249.7 982.01,252.53 C982.039737,253.887593 981.959474,255.245365 981.77,256.59 C981.60456,259.168792 981.037742,261.705977 980.09,264.11 C979.51,265.4 978.68,266.7 978.85,268.11 C983.469291,268.314411 988.089459,267.725897 992.51,266.37 C989.45,263.29 989.45,258.37 989.66,254.07 C989.82,250.58 989.99,247.07 990.15,243.6 C990.123625,242.570773 990.317984,241.547833 990.72,240.6 C991.433051,239.373698 992.64535,238.519247 994.04,238.26 C995.416041,238.013104 996.820498,237.965952 998.21,238.12 C998.306373,237.575596 998.203423,237.014694 997.92,236.54 C995.744392,237.482232 993.417713,238.027494 991.05,238.15 C990.752661,238.202791 990.446562,238.134369 990.2,237.96 C989.999392,237.732405 989.90169,237.432062 989.93,237.13 C989.835156,235.396301 989.993486,233.658033 990.4,231.97 L990.4,231.97 C991.65,232.27 992.77,233.26 994.06,233.16 C995.76,233.03 996.76,231.16 998.36,230.55 C999.59,230.1 1000.93,230.5 1002.22,230.73 C1003.51,230.96 1005.02,230.95 1005.86,229.95 C1006.93,228.7 1006.26,226.7 1006.95,225.21 C1007.95,223.08 1010.95,223.04 1013.23,223.33 C1012.30384,221.903778 1010.9112,220.843392 1009.29,220.33 C1010.14,218.81 1013.15,218.92 1012.99,217.1 C1012.94696,216.669074 1012.73917,216.271414 1012.41,215.99 L1009.81,213.61 L1013.67,212.15 C1014.76,211.74 1016.01,211.15 1015.86,209.73 C1015.78771,209.196706 1015.53754,208.703419 1015.15,208.33 L1014.9,208.08 C1013.88073,207.065305 1012.4982,206.500053 1011.06,206.51 L988.49,199.99 C984.154922,198.74005 979.484318,199.604671 975.883964,202.323628 C972.283609,205.042584 970.173965,209.298346 970.189909,213.81 L970.23,214.02 Z" id="Path" fill="#725AC1" fill-rule="nonzero"></path>
            <path d="M970.23,214.02 L970.23,233.19 C970.242166,234.607526 971.112947,235.875996 972.431395,236.396784 C973.749844,236.917571 975.252415,236.586574 976.23,235.56 L976.3,235.48 C976.99,234.71 977.93,233.77 978.88,234.18 C979.15622,234.339177 979.417306,234.523277 979.66,234.73 C979.467333,235.148278 979.303615,235.579291 979.17,236.02 C978.35,238.73 978.99,241.65 979.87,244.35 C980.75,247.05 981.87,249.7 982.01,252.53 C982.039737,253.887593 981.959474,255.245365 981.77,256.59 C981.60456,259.168792 981.037742,261.705977 980.09,264.11 C979.51,265.4 978.68,266.7 978.85,268.11 C983.469291,268.314411 988.089459,267.725897 992.51,266.37 C989.45,263.29 989.45,258.37 989.66,254.07 C989.82,250.58 989.99,247.07 990.15,243.6 C990.123625,242.570773 990.317984,241.547833 990.72,240.6 C991.433051,239.373698 992.64535,238.519247 994.04,238.26 C995.416041,238.013104 996.820498,237.965952 998.21,238.12 C998.306373,237.575596 998.203423,237.014694 997.92,236.54 C995.744392,237.482232 993.417713,238.027494 991.05,238.15 C990.752661,238.202791 990.446562,238.134369 990.2,237.96 C989.999392,237.732405 989.90169,237.432062 989.93,237.13 C989.835156,235.396301 989.993486,233.658033 990.4,231.97 L990.4,231.97 C991.65,232.27 992.77,233.26 994.06,233.16 C995.76,233.03 996.76,231.16 998.36,230.55 C999.59,230.1 1000.93,230.5 1002.22,230.73 C1003.51,230.96 1005.02,230.95 1005.86,229.95 C1006.93,228.7 1006.26,226.7 1006.95,225.21 C1007.95,223.08 1010.95,223.04 1013.23,223.33 C1012.30384,221.903778 1010.9112,220.843392 1009.29,220.33 C1010.14,218.81 1013.15,218.92 1012.99,217.1 C1012.94696,216.669074 1012.73917,216.271414 1012.41,215.99 L1009.81,213.61 L1013.67,212.15 C1014.76,211.74 1016.01,211.15 1015.86,209.73 C1015.78771,209.196706 1015.53754,208.703419 1015.15,208.33 L1014.9,208.08 C1013.88073,207.065305 1012.4982,206.500053 1011.06,206.51 L988.49,199.99 C984.154922,198.74005 979.484318,199.604671 975.883964,202.323628 C972.283609,205.042584 970.173965,209.298346 970.189909,213.81 L970.23,214.02 Z" id="Path" fill="#FFFFFF" fill-rule="nonzero" opacity="0.7"></path>
            <path d="M763.65,378.32 L809.37,378.32 C826.21,378.32 762.06,420.32 747.91,430.42 C731.67,441.99 709.66,446.31 688.85,451.16 C659.662023,457.96096 630.937141,466.615166 602.85,477.07 C597.77,478.97 592.55,481.02 589.01,484.52 C585.07,488.42 583.74,493.57 581.37,498.23 C572.09,516.41 547.9,525.89 526.53,535.34 C505.16,544.79 482.53,558.74 481.53,578.34 C481.11,586.14 485.42,594.87 494.53,597.57 C505.53,600.86 521.19,595.02 527.96,602.78 C530.66,605.89 530.48,610.04 529.78,613.78 C525.28,637.65 504.78,657.16 485.94,675.92 C476.89,684.92 468.49,699.3 479.57,706.7 C488.42,712.61 504.39,708.93 510.9,716.56 C513.14,719.2 513.54,722.56 513.56,725.75 C513.7,748.66 496.51,771.09 471.03,781.21 C454.55,787.77 435.78,789.3 417.45,790.34 C394.27,791.67 371.04,792.4 347.8,792.343428 C335.72,792.343428 323.58,792.02 311.66,790.42 C299.74,788.82 288.16,785.91 276.66,783 L85.36,734.83 C79.28,733.3 73,731.68 68.24,728.26 C62.93,724.43 60.17,718.81 58.49,713.26 C49.49,683.14 66.81,651.26 59.82,620.76 C52.19,587.46 17.21,562.23 5.27,529.76 C-2.81,507.76 0.27,484.27 3.48,461.49 L15.26,376.19 C233.98,368.57 453.97,365.76 672.56,375.57 C726.3,377.94 710.29,383.99 763.65,378.32 Z" id="Path" fill="#725AC1" fill-rule="nonzero" opacity="0.1"></path>
            <path d="M776.19,378.32 C773.930333,378.32093 771.874369,377.013812 770.916443,374.967236 C769.958517,372.920659 770.271794,370.504588 771.72,368.77 C782.5,355.88 800.52,333.77 802.92,327.36 C806.36,318.1 929.69,285.68 929.69,285.68 C929.69,285.68 983.42,264.06 991,251.68 C995.49,244.37 1017.6,226.78 1034.9,213.68 C1048.27,203.52 1046.03,218.68 1062.24,223 L1062.24,223 C1074.9,212.52 1107.9,215 1107.9,245.22 L1131.8,366.06 C1132.39858,369.074864 1131.61533,372.199339 1129.66536,374.575324 C1127.71538,376.95131 1124.80371,378.33 1121.73,378.33 L776.19,378.32 Z" id="Path" fill="#725AC1" fill-rule="nonzero"></path>
            <path d="M776.19,378.32 C773.930333,378.32093 771.874369,377.013812 770.916443,374.967236 C769.958517,372.920659 770.271794,370.504588 771.72,368.77 C782.5,355.88 800.52,333.77 802.92,327.36 C806.36,318.1 929.69,285.68 929.69,285.68 C929.69,285.68 983.42,264.06 991,251.68 C995.49,244.37 1017.6,226.78 1034.9,213.68 C1048.27,203.52 1046.03,218.68 1062.24,223 L1062.24,223 C1074.9,212.52 1107.9,215 1107.9,245.22 L1131.8,366.06 C1132.39858,369.074864 1131.61533,372.199339 1129.66536,374.575324 C1127.71538,376.95131 1124.80371,378.33 1121.73,378.33 L776.19,378.32 Z" id="Path" fill="#FFFFFF" fill-rule="nonzero" opacity="0.7"></path>
            <path d="M7.41,379.81 C7.41,379.81 79.08,304.19 157.17,307.25 C235.26,310.31 380.74,278.37 380.74,278.37 C380.74,278.37 497.33,255.93 525.14,267.69 C552.95,279.45 595.74,297.99 625.7,297.99 C655.66,297.99 682.39,382.27 682.39,382.27 C682.39,382.27 7.41,373.63 7.41,379.81 Z" id="Path" fill="#725AC1" fill-rule="nonzero"></path>
            <path d="M7.41,379.81 C7.41,379.81 79.08,304.19 157.17,307.25 C235.26,310.31 380.74,278.37 380.74,278.37 C380.74,278.37 497.33,255.93 525.14,267.69 C552.95,279.45 595.74,297.99 625.7,297.99 C655.66,297.99 682.39,382.27 682.39,382.27 C682.39,382.27 7.41,373.63 7.41,379.81 Z" id="Path" fill="#FFFFFF" fill-rule="nonzero" opacity="0.7"></path>
            <path d="M784.85,756.58 C786.406034,759.211802 785.950848,762.567763 783.75,764.69 C797.843928,768.5 812.224828,771.15545 826.75,772.63 C830.47,773.01 834.81,773.07 837.24,770.23 C838.87,768.31 839.24,765.46 841.05,763.74 C842.19765,762.812919 843.553079,762.178098 845,761.89 C849.48,760.64 854.22,760.01 858.27,757.73 C862.32,755.45 865.59,750.82 864.43,746.32 C863.09,741.14 857.06,738.97 851.87,737.62 L835.7,733.4 C826.054549,730.790373 816.19544,729.04679 806.24,728.19 C800.7,727.75 791.68,725.38 786.41,727.81 C779.89,730.81 782.53,736.67 780.35,742.45 C779.28,745.28 774.24,749.62 776.47,753.11 C777.74,755.11 782.79,753.3 784.85,756.58 Z" id="Path" fill="#725AC1" fill-rule="nonzero" opacity="0.1"></path>
            <path d="M607.18,721.7 C607.18,721.7 547.07,719.25 565.18,733.7 C583.29,748.15 599.77,750.07 607.18,759.03 C614.59,767.99 616.27,766.63 642.69,769.29 C669.11,771.95 695.24,771.81 696.21,761.29 C697.18,750.77 699.89,734.48 696.21,729.72 C692.53,724.96 607.18,721.7 607.18,721.7 Z" id="Path" fill="#725AC1" fill-rule="nonzero" opacity="0.1"></path>
            <path d="M674.2,756.47 C674.253077,757.113111 674.034731,757.749107 673.597828,758.224002 C673.160925,758.698896 672.545298,758.969393 671.9,758.97 C662.25,758.97 627.39,758.22 615.4,748.06 C601.4,736.22 628.4,740.42 628.4,740.42 C645.97,736.18 648.4,730.14 648.68,727.74 C648.675706,727.713506 648.675706,727.686494 648.68,727.66 C648.732571,727.328739 648.732571,726.991261 648.68,726.66 L649.38,726.25 L652.03,724.68 L671.92,730.68 L672.33,735.39 L674.2,756.47 Z" id="Path" fill="#FFD3D3" fill-rule="nonzero"></path>
            <path d="M803.43,713.49 L803.09,718.64 L803.26,742.91 C803.26,742.91 780.18,762.91 804.63,756.91 L813.5,756.02 C815.437515,755.821429 817.120279,754.600376 817.91,752.82 L834.91,714.12 C835.56997,712.617188 835.371372,710.875641 834.39,709.56 C831.6,705.81 825.48,698.79 819.64,700.12 C811.75,701.91 803.43,713.49 803.43,713.49 Z" id="Path" fill="#FFD3D3" fill-rule="nonzero"></path>
            <path d="M905.937384,572.549181 C905.01202,594.961035 906.534394,594.213489 899.788187,597.225445 L898.940433,597.733486 C891.012147,602.284079 827.729139,636.671179 716.392835,634.936583 C598.340174,633.085863 572.435931,622.453296 556.424136,597.62462 C556.256974,597.363342 556.083841,597.102064 555.916678,596.833528 C555.916678,596.833528 548.239136,579.523855 554.382364,563.709272 C554.646209,562.321565 555.153266,561.01941 555.868918,559.891709 C561.534538,549.919595 588.537278,524.154672 715.694334,529.089925 C715.694334,529.089925 850.905048,520.627418 897.913577,550.8631 L898.056859,550.8631 C899.203117,550.899388 906.761258,551.821119 905.937384,572.549181 Z" id="Path" fill="#725AC1" fill-rule="nonzero"></path>
            <path d="M822.47,700.63 L803.09,718.63 L800.42,713.97 L798.34,710.33 L790.22,696.19 C777.01,677.84 735.49,656.73 735.49,656.73 C726.67,653.09 723.3,649.46 722.02,647.31 C721.02,645.62 720.02,643.91 718.87,642.31 C715.823639,637.704617 713.358277,632.740305 711.53,627.53 C709.829825,622.786182 708.430384,617.939905 707.34,613.02 C706.34,608.73 705.78,605.02 705.41,602.45 C705.09,600.15 704.96,598.79 704.96,598.79 L707.96,587.91 L717.34,553.66 L752.34,551.95 C752.34,551.95 752.51,571.73 752.48,589.79 C752.48,593.19 752.48,596.53 752.48,599.67 C752.48,603.67 752.41,607.3 752.36,610.33 C752.27,614.09 752.16,616.89 752.02,618.17 C751.824901,619.72857 751.754677,621.300241 751.81,622.87 C752.06,628.8 754.62,634.57 763.81,637.55 C775.39,641.33 796.32,661.41 798.21,670.67 C799.45,676.76 809.59,687.82 816.38,694.67 C818,696.3 819.38,697.67 820.49,698.73 C821.69,699.91 822.47,700.63 822.47,700.63 Z" id="Path" fill="#565388" fill-rule="nonzero"></path>
            <path d="M822.47,700.63 L803.09,718.63 L800.42,713.97 L798.34,710.33 L790.22,696.19 C777.01,677.84 735.49,656.73 735.49,656.73 C726.67,653.09 723.3,649.46 722.02,647.31 C721.02,645.62 720.02,643.91 718.87,642.31 C715.823639,637.704617 713.358277,632.740305 711.53,627.53 C709.829825,622.786182 708.430384,617.939905 707.34,613.02 C706.34,608.73 705.78,605.02 705.41,602.45 C705.09,600.15 704.96,598.79 704.96,598.79 L707.96,587.91 L717.34,553.66 L752.34,551.95 C752.34,551.95 752.51,571.73 752.48,589.79 C752.48,593.19 752.48,596.53 752.48,599.67 C752.48,603.67 752.41,607.3 752.36,610.33 C752.27,614.09 752.16,616.89 752.02,618.17 C751.824901,619.72857 751.754677,621.300241 751.81,622.87 C752.06,628.8 754.62,634.57 763.81,637.55 C775.39,641.33 796.32,661.41 798.21,670.67 C799.45,676.76 809.59,687.82 816.38,694.67 C818,696.3 819.38,697.67 820.49,698.73 C821.69,699.91 822.47,700.63 822.47,700.63 Z" id="Path" fill="#000000" fill-rule="nonzero" opacity="0.1"></path>
            <path d="M752.45,589.72 C752.45,593.12 752.45,596.46 752.45,599.6 C742.37,602.03 718.61,602.39 705.45,602.38 C705.13,600.08 704.99,598.72 704.99,598.72 L707.99,587.84 C721.31,590.24 743.1,589.97 752.45,589.72 Z" id="Path" fill="#DFE5EE" fill-rule="nonzero"></path>
            <path d="M752,618.1 C751.805136,619.65524 751.734912,621.223568 751.79,622.79 C725.44,620.59 715.32,623.94 711.57,627.46 C709.869825,622.716182 708.470384,617.869905 707.38,612.95 C717.72,609.79 742.38,610.02 752.38,610.26 C752.21,614.02 752.1,616.82 752,618.1 Z" id="Path" fill="#DFE5EE" fill-rule="nonzero"></path>
            <path d="M672.33,735.45 L671.84,735.45 L648.68,727.73 C648.676717,727.706782 648.676717,727.683218 648.68,727.66 C648.91,727.21 649.12,726.75 649.34,726.29 L651.99,724.72 L671.88,730.72 L672.33,735.45 Z" id="Path" fill="#000000" fill-rule="nonzero" opacity="0.1"></path>
            <path d="M747.84,523.74 L751.27,528.37 C751.27,528.37 750.8,534.03 753.01,537.47 C755.22,540.91 763.11,568.52 726.01,576.41 C726.01,576.41 704.91,612.41 690.16,626.68 L684.5,637.32 C684.5,637.32 683.29,649.84 684.5,655.84 C685.71,661.84 688.27,680.55 679.35,693.07 C679.35,693.07 671.63,722.75 672.83,734.42 L671.83,734.42 L648.67,726.7 L648.67,726.7 C651.489585,721.17056 652.998543,715.066298 653.08,708.86 L653.3,692.56 L653.3,632.98 C653.299226,626.188182 654.36902,619.43869 656.47,612.98 L656.47,612.98 C657.583573,609.582092 658.176947,606.035334 658.23,602.46 C658.33,595 659.23,580.64 664.23,569.56 C666.69,564.05 669.12,558.56 671.23,552.87 C674.75,543.43 679.82,531.05 683.02,528.36 L688.02,518.93 L714.67,521.5 L747.84,523.74 Z" id="Path" fill="#565388" fill-rule="nonzero"></path>
            <path d="M724,402.88 C724,402.88 691.57,423.03 694.31,417.37 C695.46,414.99 693.86,409.49 691.6,403.9 C690.1,400.14 688.29,396.35 686.84,393.46 C685.39,390.57 684.19,388.37 684.19,388.37 C684.19,388.37 717.65,368.14 716.44,375.86 C716.237217,378.384382 716.470627,380.924831 717.13,383.37 C717.6,385.37 718.21,387.56 718.9,389.67 C721.13,396.54 724,402.88 724,402.88 Z" id="Path" fill="#FFD3D3" fill-rule="nonzero"></path>
            <path d="M557,598 C556.811079,597.736872 556.61541,597.473745 556.426489,597.203308 C556.426489,597.203308 547.749607,579.77111 554.692462,563.844585 C554.990651,562.447055 555.563708,561.135683 556.372512,560 L557,598 Z" id="Path" fill="#535461" fill-rule="nonzero"></path>
            <path d="M622,582.99981 C622,588.257742 619.441794,592.997945 615.518271,595.010068 C611.594747,597.022192 607.078576,595.909983 604.075641,592.192064 C601.072706,588.474144 600.174383,582.882694 601.79956,578.024998 C603.424737,573.167302 607.253362,570 611.500153,570 C611.820982,570 612.141811,570 612.456806,570.050555 C617.863541,570.663004 622.001468,576.277799 622,582.99981 L622,582.99981 Z" id="Path" stroke="#535461"></path>
            <path d="M617,589.712221 L609.424216,593 L604,573.771913 C605.908061,571.356727 608.486371,570.001073 611.17378,570 C611.485192,570 611.796603,570 612.102352,570.050581 L617,589.712221 Z" id="Path" fill="#535461" fill-rule="nonzero"></path>
            <path d="M714.36,380.98 C709.85,387.98 704.74,395.080039 695.75,395.080039 C692.706284,395.085354 689.687034,394.536399 686.84,393.46 C685.33,390.46 684.19,388.37 684.19,388.37 C684.19,388.37 717.65,368.14 716.44,375.86 C716.15,377.79 713.7,378.07 714.36,380.98 Z" id="Path" fill="#000000" fill-rule="nonzero" opacity="0.1"></path>
            <path d="M721.14,368.66 C721.14,382.68251 709.77251,394.05 695.75,394.05 C681.72749,394.05 670.359903,382.68251 670.359903,368.66 C670.353333,366.267625 670.690101,363.886679 671.36,361.59 C674.88832,349.45726 686.80112,341.76525 699.310896,343.542307 C711.820672,345.319363 721.120074,356.02464 721.13,368.66 L721.14,368.66 Z" id="Path" fill="#FFD3D3" fill-rule="nonzero"></path>
            <path d="M724,402.88 C724,402.88 691.57,423.03 694.31,417.37 C695.46,414.99 693.86,409.49 691.6,403.9 C698.02,393.23 712.25,390.41 718.9,389.67 C721.13,396.54 724,402.88 724,402.88 Z" id="Path" fill="#000000" fill-rule="nonzero" opacity="0.1"></path>
            <path d="M722.45,392.5 C722.45,392.5 701.45,391.32 693.7,407.1 C694.252281,411.063417 693.169363,415.081043 690.7,418.23 C690.7,418.23 671.49,432.64 677.32,467.81 C680.813456,488.507167 682.712371,509.442046 683,530.43 C683,530.43 688,525.8 698.79,530.43 C709.58,535.06 751.28,530.43 751.28,530.43 C751.28,530.43 746.82,488.06 750.6,480.34 C754.38,472.62 752.12,432.18 747.32,423.77 C744.09,418.12 735.22,410.57 728.73,404.67 C725.235677,401.506102 723.007854,397.181923 722.46,392.5 L722.45,392.5 Z" id="Path" fill="#000000" fill-rule="nonzero" opacity="0.1"></path>
            <path d="M722.45,390.44 C722.45,390.44 698.45,390.78 690.71,406.56 C690.71,406.56 694.83,411.2 690.71,416.17 C690.71,416.17 671.5,430.58 677.33,465.75 C680.820104,486.447426 682.715677,507.382303 683,528.37 C683,528.37 688,523.74 698.79,528.37 C709.58,533 751.28,528.37 751.28,528.37 C751.28,528.37 746.82,486 750.6,478.28 C754.38,470.56 752.12,430.12 747.32,421.71 C744.09,416.07 735.22,408.51 728.73,402.61 C725.235677,399.446102 723.007854,395.121923 722.46,390.44 L722.45,390.44 Z" id="Path" fill="#DFE5EE" fill-rule="nonzero"></path>
            <path d="M748.367478,494.016031 L677.579031,499.027503 C677.579031,499.027503 675.764402,541.548449 678.953392,541.548449 C679.837859,541.548449 754.94163,555.007765 754.057144,535.151125 C753.172657,515.294484 748.367478,494.016031 748.367478,494.016031 Z" id="Path" fill="#3F3D56" fill-rule="nonzero" transform="translate(715.564895, 520.011016) rotate(5.000000) translate(-715.564895, -520.011016) "></path>
            <g id="bar" transform="translate(36.000000, 0.000000)" fill="#725AC1" fill-rule="nonzero">
                <polygon id="ba2479ac-4c7d-43b4-a028-73b1e20e4002" transform="translate(571.593777, 511.614254) rotate(121.000000) translate(-571.593777, -511.614254) " points="534.308735 508.032954 609.308735 508.032954 609.308735 515.195554 533.878819 514.924543"></polygon>
                <polygon id="ba2479ac-4c7d-43b4-a028-73b1e20e4002" transform="translate(575.710450, 473.204586) rotate(33.000000) translate(-575.710450, -473.204586) " points="556.432732 470.204586 595.21045 470.204586 595.21045 476.204586 556.21045 475.977564"></polygon>
                <polygon id="ba2479ac-4c7d-43b4-a028-73b1e20e4002" transform="translate(536.500000, 530.000000) rotate(33.000000) translate(-536.500000, -530.000000) " points="517.222282 527 556 527 556 533 517 532.772978"></polygon>
                <rect id="ba2479ac-4c7d-43b4-a028-73b1e20e4002" transform="translate(357.057783, 255.714254) scale(1, -1) rotate(-230.000000) translate(-357.057783, -255.714254) " x="25.557783" y="255.214254" width="663" height="1"></rect>
                <rect id="ba2479ac-4c7d-43b4-a028-73b1e20e4002" transform="translate(607.960562, 517.455342) scale(1, -1) rotate(-182.000000) translate(-607.960562, -517.455342) " x="574.960562" y="516.955342" width="66" height="1"></rect>
                <rect id="ba2479ac-4c7d-43b4-a028-73b1e20e4002" transform="translate(372.964213, 233.575028) scale(1, -1) rotate(-231.000000) translate(-372.964213, -233.575028) " x="73.9642133" y="233.075028" width="598" height="1"></rect>
                <rect id="ba2479ac-4c7d-43b4-a028-73b1e20e4002" transform="translate(261.535534, 261.035534) scale(1, -1) rotate(-225.000000) translate(-261.535534, -261.035534) " x="-106.464466" y="260.535534" width="736" height="1"></rect>
            </g>
            <path d="M601.758068,495.123421 L599.048068,500.783421 L601.258068,511.663421 C603.012653,520.590895 607.038846,528.915369 612.948068,535.833421 C618.858068,542.663421 625.948068,547.333421 629.588068,536.463421 C634.088068,522.953421 630.588068,516.163421 627.688068,513.093421 C625.191499,510.391902 622.926833,507.484967 620.918068,504.403421 C618.048068,500.223421 614.048068,495.273421 609.748068,493.553421 C601.858068,490.553421 601.758068,495.123421 601.758068,495.123421 Z" id="Path" fill="#FFD3D3" fill-rule="nonzero" transform="translate(615.395093, 517.731257) scale(1, -1) rotate(140.000000) translate(-615.395093, -517.731257) "></path>
            <path d="M640.574311,446.916698 L640.514311,455.066698 L641.934311,470.426698 C644.753743,476.525571 646.957981,482.890393 648.514311,489.426698 C651.514311,501.426698 651.884311,524.946698 651.884311,524.946698 C651.884311,524.946698 667.774311,519.836698 670.884311,521.376698 C670.884311,521.376698 671.804311,486.376698 668.544311,475.376698 C665.284311,464.376698 666.654311,449.496698 666.654311,449.496698 L640.574311,446.916698 Z" id="Path" fill="#000000" fill-rule="nonzero" opacity="0.1" transform="translate(655.759187, 485.931698) rotate(57.000000) translate(-655.759187, -485.931698) "></path>
            <path d="M643.377352,445.711162 L641.707352,456.341162 L644.707352,469.211162 C647.526784,475.310035 649.731022,481.674857 651.287352,488.211162 C654.287352,500.211162 654.657352,523.731162 654.657352,523.731162 C654.657352,523.731162 669.407352,519.731162 672.497352,521.321162 C672.497352,521.321162 674.557352,485.131162 671.297352,474.151162 C668.037352,463.171162 669.407352,448.261162 669.407352,448.261162 L643.377352,445.711162 Z" id="Path" fill="#565388" fill-rule="nonzero" transform="translate(657.423363, 484.721162) rotate(57.000000) translate(-657.423363, -484.721162) "></path>
            <path d="M721.140019,368.66 C721.149352,376.383772 717.632771,383.689422 711.59,388.5 L710.31,388.07 C709.697188,387.900033 709.120913,387.618675 708.61,387.24 C708.02597,386.680824 707.607314,385.97153 707.4,385.19 C706.47,382.43 706.19,379.47 705.15,376.73 C704.11,373.99 702.04,371.38 699.15,370.9 C698.83052,370.819516 698.492635,370.85864 698.2,371.01 C697.885699,371.285084 697.682946,371.66569 697.63,372.08 C696.891775,374.606836 695.016814,376.644515 692.56,377.59 C691.05,378.15 688.37,378.59 686.93,377.59 C685.68,376.72 685.72,375.24 685.42,373.87 C684.61,370.1 682.76,366.29 679.1,364.58 C677.849529,364.074841 676.566665,363.653901 675.26,363.32 C673.900651,362.922432 672.591929,362.368742 671.36,361.67 C674.88832,349.53726 686.80112,341.84525 699.310896,343.622307 C711.820672,345.399363 721.120074,356.10464 721.13,368.74 L721.140019,368.66 Z" id="Path" fill="#000000" fill-rule="nonzero" opacity="0.1"></path>
            <path d="M679.11,363.47 C677.857196,362.961891 676.570803,362.54089 675.26,362.21 C672.256371,361.406208 669.559048,359.728647 667.51,357.39 C665.46368,354.991233 664.791603,351.710136 665.73,348.7 C666.73,345.97 669.3,343.93 669.91,341.08 C670.011735,339.945666 673.091358,339.121885 672.54,340.31 C674.156913,339.428241 675.530951,338.16069 676.54,336.62 C677.005156,335.728587 677.598088,336.909936 678.3,336.19 C679.026613,335.460342 680.157087,335.320064 681.04,335.85 C680.768064,336.902868 681.30246,335.997108 682.3,336.43 C683.285415,336.8135 684.349513,336.950803 685.4,336.83 C688.22923,336.824385 691.049349,336.509175 693.81,335.89 C696.47,335.19 699.04,333.89 701.81,333.89 C704.58,333.89 707.65,335.82 707.52,338.58 C710.35,337.58 713.45,338.69 716.25,339.8 C719.05,340.91 721.91,342.07 724.17,344.06 C726.43,346.05 728.02,349.06 727.48,352.06 C727.329366,352.553356 727.312114,353.077811 727.43,353.58 C727.651966,354.00455 727.970515,354.371051 728.36,354.65 C730.45,356.58 730.48,359.82 730.36,362.65 C730.389606,363.520749 730.229223,364.387499 729.89,365.19 C729.48,366 728.71,366.61 728.45,367.48 C727.85,369.48 730.3,371.22 730.54,373.33 C730.529458,374.644052 730.082738,375.917381 729.27,376.95 L722.91,387.19 C722.564068,387.820657 722.114454,388.38859 721.58,388.87 C719.94,390.17 717.58,389.55 715.58,388.87 L710.32,387.08 C709.711877,386.905812 709.139617,386.624761 708.63,386.25 C708.04533,385.679361 707.62704,384.960318 707.42,384.17 C706.48,381.4 706.21,378.44 705.18,375.7 C704.15,372.96 702.07,370.35 699.18,369.88 C698.862118,369.791565 698.522501,369.827314 698.23,369.98 C697.915699,370.255084 697.712946,370.63569 697.66,371.05 C696.924544,373.578399 695.048601,375.617145 692.59,376.56 C691.08,377.12 688.4,377.56 686.96,376.56 C685.71,375.68 685.75,374.2 685.45,372.82 C684.62,368.99 682.77,365.19 679.11,363.47 Z" id="Path" fill="#FBD157" fill-rule="nonzero"></path>
            <ellipse id="Oval" fill="#535461" fill-rule="nonzero" cx="840.5" cy="545.5" rx="12.5" ry="6.5"></ellipse>
            <ellipse id="Oval" fill="#535461" fill-rule="nonzero" cx="840.5" cy="609.5" rx="12.5" ry="6.5"></ellipse>
            <ellipse id="Oval" fill="#535461" fill-rule="nonzero" cx="876" cy="577" rx="13" ry="7"></ellipse>
            <path d="M905.936694,572.722589 C905.00119,595.217299 906.540245,594.46699 899.72012,597.490081 L898.863078,598 L898,551 C899.12864,550.992757 906.769595,551.917896 905.936694,572.722589 Z" id="Path" fill="#535461" fill-rule="nonzero"></path>
            <path d="M691.890238,415.891168 C691.890238,415.891168 674.740238,413.351168 684.520238,454.011168 C684.520238,454.011168 692.580238,474.591168 692.750238,477.511168 C692.750238,477.511168 708.020238,466.191168 720.200238,474.771168 C720.200238,474.771168 722.600238,449.891168 716.430238,438.221168 C716.430238,438.221168 712.260238,409.831168 691.890238,415.891168 Z" id="Path" fill="#000000" fill-rule="nonzero" opacity="0.1" transform="translate(701.082932, 446.276958) rotate(57.000000) translate(-701.082932, -446.276958) "></path>
            <path d="M694.178878,415.633042 C694.178878,415.633042 677.028878,413.093042 686.808878,453.753042 C686.808878,453.753042 694.868878,474.343042 695.038878,477.253042 C695.038878,477.253042 710.308878,465.933042 722.488878,474.513042 C722.488878,474.513042 724.888878,449.633042 718.718878,437.963042 C718.718878,437.963042 714.548878,409.573042 694.178878,415.633042 Z" id="Path" fill="#DFE5EE" fill-rule="nonzero" transform="translate(703.371571, 446.018832) rotate(57.000000) translate(-703.371571, -446.018832) "></path>
            <path d="M690.321805,448.822526 C690.321805,448.822526 695.981805,445.042526 696.841805,442.642526 C697.701805,440.242526 702.351805,444.532526 700.361805,446.592526 C698.371805,448.652526 690.321805,448.822526 690.321805,448.822526 Z" id="Path" fill="#565388" fill-rule="nonzero" transform="translate(695.587120, 445.377744) rotate(57.000000) translate(-695.587120, -445.377744) "></path>
            <path d="M820.39,698.66 L800.39,713.98 L798.31,710.34 L816.25,694.6 C817.9,696.19 819.32,697.63 820.39,698.66 Z" id="Path" fill="#535461" fill-rule="nonzero"></path>
            <path d="M709.96105,452.061047 C709.96105,452.061047 715.81105,475.431047 713.41105,483.821047" id="Path" fill="#000000" fill-rule="nonzero" opacity="0.1" transform="translate(711.975049, 467.941047) rotate(57.000000) translate(-711.975049, -467.941047) "></path>
            <polygon id="Path" fill="#000000" fill-rule="nonzero" opacity="0.1" points="803.09 718.64 803.09 719.73 823.79 700.42 822.47 700.63"></polygon>
            <path d="M692.67,411.86 C692.67,411.86 718.44,404.19 724,398.19" id="Path" fill="#000000" fill-rule="nonzero" opacity="0.1"></path>
            <path d="M158.27,607.19 C192.27,606.92 221.06,599.88 241.65,600.31 C262.24,600.74 280.77,599.53 300.33,603.74" id="Path" fill="#725AC1" fill-rule="nonzero" opacity="0.1"></path>
            <path d="M53.07,559.19 C87.07,558.93 115.86,551.89 136.45,552.32 C157.04,552.75 175.56,551.54 195.12,555.75" id="Path" fill="#725AC1" fill-rule="nonzero" opacity="0.1"></path>
            <path d="M269.24,702.81 C303.24,702.41 332.03,691.73 352.62,692.39 C373.21,693.05 391.73,691.2 411.29,697.59" id="Path" fill="#725AC1" fill-rule="nonzero" opacity="0.1"></path>
            <path d="M284.88,652.54 C318.88,651.79 347.68,631.54 368.26,632.79 C388.84,634.04 407.38,630.53 426.94,642.64" id="Path" fill="#725AC1" fill-rule="nonzero" opacity="0.1"></path>
            <path d="M344.93,417.19 C378.93,417.06 407.72,413.54 428.31,413.75 C448.9,413.96 467.43,413.36 486.99,415.47" id="Path" fill="#725AC1" fill-rule="nonzero" opacity="0.1"></path>
            <path d="M142.83,401.59 C176.83,401.46 205.62,397.94 226.21,398.16 C246.8,398.38 265.33,397.76 284.88,399.87" id="Path" fill="#725AC1" fill-rule="nonzero" opacity="0.1"></path>
            <path d="M273.9,481.72 C307.9,481.58 336.7,478.06 357.28,478.28 C377.86,478.5 396.4,477.89 415.96,479.99" id="Path" fill="#725AC1" fill-rule="nonzero" opacity="0.1"></path>
            <path d="M71.8,439.32 C105.8,439.19 134.6,435.67 155.18,435.88 C175.76,436.09 194.3,435.49 213.86,437.6" id="Path" fill="#725AC1" fill-rule="nonzero" opacity="0.1"></path>
        </g>
        <path d="M806.936433,431.506649 C801.682017,429.173149 795.436213,431.338185 792.986039,436.34239 C790.535864,441.346596 792.809151,447.294981 798.063567,449.62848 C803.317983,451.961979 809.563787,449.796944 812.013961,444.792739 C814.464136,439.788533 812.190849,433.840148 806.936433,431.506649 Z" id="Oval" fill="#FBD157" fill-rule="nonzero"></path>
        <path d="M808.869799,436.544716 C808.442602,441.911359 804.182811,446.178235 799,446.430932 C799.346238,446.489455 799.695607,446.529325 800.046712,446.550383 C805.617719,446.878917 810.504773,442.456381 810.965057,436.669836 C811.42534,430.883291 807.284738,425.921675 801.714386,425.584909 C801.363266,425.564035 801.010888,425.562001 800.658657,425.578815 C805.752452,426.445172 809.296368,431.178038 808.869799,436.544716 Z" id="Path" fill="#FBD157" fill-rule="nonzero" transform="translate(805.000000, 436.067564) rotate(-26.000000) translate(-805.000000, -436.067564) "></path>
    </g>
</svg>