<?xml version="1.0" encoding="UTF-8"?>
<svg width="1300px" height="1000px" viewBox="0 0 1300 1000" version="1.1" xmlns="http://www.w3.org/2000/svg" xmlns:xlink="http://www.w3.org/1999/xlink">
    <!-- Generator: Sketch 64 (93537) - https://sketch.com -->
    <title>Artboard</title>
    <desc>Created with Sketch.</desc>
    <defs>
        <linearGradient x1="50.0228196%" y1="100.006339%" x2="50.0228196%" y2="-0.00916024026%" id="linearGradient-1">
            <stop stop-color="#808080" stop-opacity="0.25" offset="0%"></stop>
            <stop stop-color="#808080" stop-opacity="0.12" offset="54%"></stop>
            <stop stop-color="#808080" stop-opacity="0.1" offset="100%"></stop>
        </linearGradient>
    </defs>
    <g id="Artboard" stroke="none" stroke-width="1" fill="none" fill-rule="evenodd">
        <g id="flo_git" transform="translate(158.000000, 153.000000)">
            <path d="M587.24,111.4 C522.52,109.15 460.88,88.26 402.01,65.4 C343.14,42.54 284.85,17.21 221.68,5.1 C181.05,-2.69 134.59,-3.79 101.85,17.99 C70.35,38.99 60.17,75.14 54.69,108.71 C50.58,133.98 48.15,160.56 59.44,184.21 C67.27,200.63 81.18,214.43 90.8,230.16 C124.26,284.88 100.61,352.36 64.34,405.79 C47.34,430.85 27.6,454.79 14.47,481.45 C1.34,508.11 -4.73,538.7 6.75,565.92 C18.14,592.92 45.27,613.16 74.65,627.41 C134.34,656.35 204.65,664.64 273.27,669.33 C425.09,679.72 577.73,675.22 729.95,670.72 C786.29,669.05 842.87,667.36 898.29,658.65 C929.07,653.81 960.85,646.13 983.19,627.65 C1011.55,604.12 1018.58,564.27 999.58,534.77 C967.7,485.28 879.58,472.98 857.27,419.87 C845,390.64 857.6,358.07 875.42,330.96 C913.66,272.79 977.75,221.77 981.13,155.28 C983.45,109.62 952.64,63.89 905,42.28 C855.06,19.63 785.82,22.48 749,59.97 C711.04,98.53 644.38,113.38 587.24,111.4 Z" id="Path" fill="#725AC1" fill-rule="nonzero" opacity="0.1"></path>
            <path d="M420.73,651.49 C419.73,647.87 418.73,644.21 416.73,641.06 C414.8755,638.389141 412.672706,635.977838 410.18,633.89 C402.93,627.31 394.03,620.63 384.42,622.29 C381.447795,622.947455 378.576037,623.996622 375.88,625.41 C374.48,626.06 373.07,626.71 371.63,627.26 C367.576419,628.954594 363.096021,629.346017 358.81,628.38 C356.61,627.79 354.56,626.73 352.39,626.07 C351.359626,625.760422 350.306324,625.533042 349.24,625.39 C351.336639,624.451504 353.370827,623.379296 355.33,622.18 C366.11,615.58 374.71,603.65 373.51,590.89 C373.1,586.6 371.63,582.49 370.17,578.44 L366.33,567.82 C364.67,563.22 362.95,558.53 359.92,554.71 C356.55,550.45 351.75,547.56 346.79,545.41 C336.14,540.78 324.5,539.15 313.01,537.57 L312.21,537.46 L312.21,413.33 C312.21,408.911722 308.628278,405.33 304.21,405.33 L289.11,405.33 C288.443333,401.25 287.776667,397.176667 287.11,393.11 C285.21,381.5 283.24,369.68 277.89,359.23 C274.39,352.39 268.82,345.86 261.31,344.52 C259.834118,344.386856 258.383725,344.050338 257,343.52 C254.8,342.44 253.6,340.04 251.91,338.27 C247.55,333.7 240.46,333.63 234.62,331.27 C229.46,329.22 225.24,325.36 220.54,322.39 C215.84,319.42 210,317.31 204.8,319.24 C204.8,319.62 204.73,320 204.69,320.37 L201.35,318.83 C197.75,317.16 194.08,315.45 191.19,312.71 C187.48,309.21 185.5,304.57 183.96,299.64 C183.8,299.13 183.65,298.64 183.49,298.09 C189.881896,291.568858 194.208999,283.307708 195.93,274.34 L196.74,276.97 C196.92235,277.560931 197.135985,278.141751 197.38,278.71 C197.793488,279.808949 198.482127,280.783373 199.38,281.54 C199.636197,281.741093 199.918848,281.905973 200.22,282.03 C200.496167,282.139537 200.785158,282.213464 201.08,282.25 C201.495242,282.301355 201.916525,282.270778 202.32,282.16 C203.689666,281.735928 204.793041,280.713467 205.32,279.38 C205.479472,278.986851 205.596795,278.577897 205.67,278.16 C205.708647,277.908311 205.732023,277.654514 205.74,277.4 C205.74,277.32 205.74,277.24 205.74,277.16 C205.74,277.08 205.74,276.81 205.74,276.64 C205.74,276.47 205.74,276.46 205.74,276.36 C205.74,276.26 205.74,276.03 205.69,275.86 L205.69,275.6 C205.69,275.4 205.63,275.2 205.59,275.01 C205.55,274.82 205.59,274.9 205.59,274.85 C205.54,274.6 205.48,274.34 205.43,274.09 C205.43,274.03 205.43,273.96 205.43,273.9 C205.43,273.84 205.34,273.49 205.29,273.28 C205.24,273.07 205.22,273.01 205.19,272.87 L205.19,272.81 C205.09,272.41 205,272.02 204.91,271.62 C204.183199,268.149425 203.997671,264.587301 204.36,261.06 C204.958516,255.883548 205.914127,250.754658 207.22,245.71 L207.43,244.8 C207.51,244.45 207.59,244.1 207.66,243.74 C207.82,243.02 207.98,242.3 208.13,241.57 L208.49,239.73 L208.76,238.09 L208.76,237.88 C209.321379,234.163772 209.43887,230.393974 209.11,226.65 C208.65,221.42 207.03,216.47 203.48,212.53 C200.97,209.74 197.66,207.68 195.33,204.75 C193.15,202.01 192.222276,198.135818 189.66,195.94 C182.577858,189.870751 175.640907,189.870751 165,183.934379 C163.550884,183.125943 166.290923,177.027534 166.290923,174 C166.290923,170.972466 165.349157,167.821607 164.084474,164.86 C162.80417,161.86181 161.190021,158.932705 158.122743,156.95025 C153.824001,154.17187 148.717999,152.909862 146.699877,152.909862 C143.241767,152.909862 138.532833,153.297766 133.746709,156.184938 C129.94365,158.479087 127.382898,162.400951 125.764784,164.86 C125.419565,165.384629 128.96699,157.773508 130.1,155.078332 C131.114813,152.664319 134.068253,149.407035 133.746709,148.269087 C133.41098,147.080941 128.28,151.646656 127.1,152.909862 C125.92,154.173069 121.752495,157.91042 120.57,160.983354 C117.885872,167.958563 118.699626,171.048685 118.92,174 C119.136453,176.898811 120.315881,180.369501 120.57,183.142319 C120.720082,184.77994 123.065292,186.347507 122.834124,187.501324 C122.56277,188.855722 119.654492,189.689959 119.04,190.14 C115.68,192.59 113.38,196.14 111.04,199.5 C106.74,205.75 101.86,211.99 94.97,215.5 C92.37,216.82 89.39,217.82 87.66,220.12 C86.6307835,221.679103 85.9644237,223.449228 85.71,225.3 C84.3851379,231.811178 83.6952382,238.435555 83.65,245.08 C83.65,245.91 83.65,246.74 83.65,247.58 C83.6705011,250.071278 84.2014269,252.531916 85.21,254.81 C85.37,255.15 85.55,255.48 85.74,255.81 L85.86,256.02 C87.0695175,257.748925 88.1395603,259.571341 89.06,261.47 C89.2893061,262.001683 89.4538212,262.55902 89.55,263.13 C89.7213257,264.594945 89.6264677,266.078795 89.27,267.51 C89.27,267.73 89.18,267.95 89.14,268.17 L89.05,268.6 C89.05,268.75 89.05,268.9 88.97,269.04 C88.89,269.47 88.82,269.9 88.76,270.32 C88.6083968,271.476692 88.6831163,272.651825 88.98,273.78 C89.2569676,275.051443 90.0650586,276.143458 91.2,276.78 C91.7696004,277.053142 92.3759758,277.241792 93,277.34 C93.63,277.45 94.27,277.52 94.89,277.66 C95.6872846,277.841754 96.4572147,278.127536 97.18,278.51 C97.8724457,278.841376 98.5207962,279.257933 99.11,279.75 C99.4015074,280.014937 99.6785732,280.295341 99.94,280.59 C100.468085,281.194753 100.94317,281.843813 101.36,282.53 C101.573333,282.883333 101.773333,283.243333 101.96,283.61 C102.676554,285.057072 103.249301,286.571001 103.67,288.13 C103.93,289.06 104.15,290 104.34,290.94 C104.43,291.36 104.51,291.78 104.58,292.19 C104.65,292.6 104.72,293.02 104.78,293.43 C105.052857,293.414498 105.32217,293.360635 105.58,293.27 C107.05,292.74 107.87,291.03 108.33,289.37 C108.41,289.09 108.48,288.82 108.54,288.55 C108.77,287.55 109.01,286.45 109.24,285.4 C113.181786,293.770695 119.537593,300.770789 127.49,305.5 C127.77,306.33 128.04,307.15 128.28,307.99 C129.59,312.52 130.22,317.26 127.95,321.22 C126.33,324.03 123.61,325.76 120.57,326.96 C120.1317,326.375736 119.567839,325.897308 118.92,325.56 C116.29,324.24 113.13,325.84 110.92,327.81 C106.92,331.43 103.66,336.62 98.4,337.81 C96.5,338.25 94.4,338.16 92.82,339.32 C91.7749957,340.302677 90.8998368,341.451534 90.23,342.72 C87.9106607,346.050787 84.0558864,347.972522 80,347.82 C78.17,347.73 76,347.31 74.75,348.65 C73.82,349.65 73.75,351.23 72.75,352.18 C71.41,353.5 69.21,352.86 67.34,352.78 C63.78,352.63 60.47,354.93 58.44,357.88 C56.41,360.83 55.44,364.36 54.44,367.88 L54.44,367.94 C54.1833946,368.126902 53.9395217,368.330686 53.71,368.55 C52.7404489,369.582854 51.9888396,370.800393 51.5,372.13 C43.4129295,390.542493 38.6396888,410.238035 37.4,430.31 C37.419762,431.288119 37.200048,432.256235 36.76,433.13 C36.312592,433.700952 35.8210843,434.235926 35.29,434.73 C34.3299717,435.905291 33.8870411,437.419379 34.0622764,438.926779 C34.2375117,440.434179 35.0159619,441.806282 36.22,442.73 C36.5077446,442.208464 36.8679981,441.73037 37.29,441.31 C37.18,441.77 37.08,442.22 37.01,442.63 C36.6083678,445.547408 36.5714171,448.503464 36.9,451.43 C37.8466667,465.323333 38.8033333,479.206667 39.77,493.08 C40.04,497.01 40.31,500.93 40.67,504.85 C41.37,512.436667 42.37,519.993333 43.67,527.52 C43.73,527.86 43.8,528.21 43.89,528.52 C35.74,531.11 28.49,535.79 25.44,543.6 C24.38,546.3 23.9,549.24 22.6,551.83 C21.17,554.67 18.82,556.94 17.26,559.72 C14.57,564.5 14.45,570.36 15.43,575.72 C17.32,586.17 22.97,595.51 30.43,603.11 C30.1,603.11 29.76,603.11 29.43,603.11 C26.9927495,603.379945 24.6531215,604.219197 22.6,605.56 C6.82,614.78 -2.2,634.56 1.09,652.62 C1.74,656.15 2.87,659.73 5.23,662.42 C7.19165512,664.55843 9.71388734,666.103644 12.51,666.88 C14.2586469,667.406231 16.0591462,667.74152 17.88,667.88 C30.18,668.88 42.09,663.18 54.42,662.7 C58.5045622,662.634914 62.5891979,662.825285 66.65,663.27 C72.59,663.763333 78.54,664.076667 84.5,664.21 C94.19,664.44 99.64,661.86 105.82,654.62 C107.338989,652.819221 108.607175,650.821072 109.59,648.68 C114.85,648.38 120.66,647.92 124.86,647.58 L124.92,648.16 C125.15,650.16 125.5,652.46 127.1,653.72 C128.000032,654.340746 129.023253,654.760267 130.1,654.95 C140.2,657.43 150.42,659.95 160.82,659.95 C165.700534,659.851505 170.571616,659.477577 175.41,658.83 L193.68,656.72 C199.003939,657.394832 204.257748,658.539293 209.38,660.14 C214.66,661.93 219.59,664.59 224.75,666.7 C236.75,671.56 249.65,673.3 262.43,675 C264.61,675.29 267.11,675.49 268.72,674 C270.8,672 270.11,668.66 269.52,665.86 C269.28,664.71 269.1,663.56 268.96,662.4 C277.583979,664.673504 286.021825,667.602011 294.2,671.16 L295.63,671.79 C296.05,673.97 298.06,675.71 299.99,678.06 C300.623647,679.051838 301.364798,679.970731 302.2,680.8 C303.154484,681.419638 304.239492,681.809831 305.37,681.94 C318.861311,684.453629 332.636937,685.076275 346.3,683.79 C349.096364,683.409069 351.924084,683.311908 354.74,683.5 C356.808704,683.781751 358.849489,684.240091 360.84,684.87 L372.41,688.19 C380.94,690.63 389.67,693.1 398.52,692.55 C400.314496,692.437218 402.096955,692.179714 403.85,691.78 C410.85,690.16 417.37,686.25 420.73,679.96 C425.48,671.41 423.29,660.89 420.73,651.49 Z" id="Path" fill="url(#linearGradient-1)" fill-rule="nonzero"></path>
            <path d="M97.02,649.54 C94.91,644.74 92.91,639.22 95.02,634.42 C96.3972922,631.593189 98.7632885,629.369509 101.67,628.17 C104.546349,626.997099 107.578152,626.249255 110.67,625.95 C120.374439,624.677149 130.194393,624.542905 139.93,625.55 C140.64,631.17 139.14,636.87 137.85,642.3 C136.68,647.3 136.01,648.04 130.85,648.3 C127.51,648.48 97.81,651.31 97.02,649.54 Z" id="Path" fill="#FFD3D3" fill-rule="nonzero"></path>
            <ellipse id="Oval" fill="#464353" fill-rule="nonzero" cx="186.07" cy="577.16" rx="143" ry="40"></ellipse>
            <ellipse id="Oval" fill="#000000" fill-rule="nonzero" opacity="0.1" cx="186.07" cy="577.16" rx="143" ry="40"></ellipse>
            <path d="M211.71,366 C206.808302,375.471641 198.667316,382.867375 188.77,386.84 C182.926687,388.969185 176.777023,390.137654 170.56,390.3 C163.77,390.61 156.84,390.17 150.46,387.85 C141.9,384.75 134.79,378.41 129.46,371.02 C124.13,363.63 120.46,355.19 117.27,346.68 C115.59,342.25 113.99,337.53 114.78,332.85 C119.93,331.68 125.57,329.96 128.23,325.39 C130.5,321.47 129.87,316.77 128.56,312.29 C128.19,311.02 127.76,309.76 127.33,308.550005 C126.33,305.65 122.88,300.14 125.33,297.66 C126.86,296.09 133.27,295.29 135.48,294.27 C142.29,291.13 148.57,286.59 156.05,285.1 C162.52,283.81 169.2,285.02 175.66,286.36 C176.516887,286.48462 177.339909,286.7805 178.08,287.23 C178.923842,287.941148 179.54811,288.87755 179.88,289.93 C181.72,294.41 182.8,299.36 184.28,304.03 C185.82,308.92 187.8,313.51 191.51,316.98 C194.4,319.69 198.08,321.39 201.68,323.04 L210.54,327.1 C212.116005,327.690105 213.545458,328.614643 214.73,329.81 C215.888636,331.402567 216.581144,333.28619 216.73,335.25 C218.31751,345.772781 216.56163,356.528422 211.71,366 L211.71,366 Z" id="Path" fill="#FFD3D3" fill-rule="nonzero"></path>
            <path d="M184.24,304.03 C169.72884,319.138104 146.842734,322.533815 128.57,312.29 C128.2,311.02 127.77,309.76 127.34,308.550005 C126.34,305.65 122.89,300.14 125.34,297.66 C126.87,296.09 133.28,295.29 135.49,294.27 C142.3,291.13 148.58,286.59 156.06,285.1 C162.53,283.81 169.21,285.02 175.67,286.36 C176.526887,286.48462 177.349909,286.7805 178.09,287.23 C178.933842,287.941148 179.55811,288.87755 179.89,289.93 C181.68,294.41 182.76,299.36 184.24,304.03 Z" id="Path" fill="#000000" fill-rule="nonzero" opacity="0.1"></path>
            <circle id="Oval" fill="#FFD3D3" fill-rule="nonzero" cx="151.07" cy="270.16" r="46"></circle>
            <path d="M291.22,419.45 L287.44,396.55 C285.53,385.06 283.56,373.35 278.22,363 C274.71,356.22 269.14,349.76 261.63,348.42 C260.150668,348.288149 258.696796,347.951605 257.31,347.42 C255.11,346.36 253.91,343.98 252.22,342.22 C247.86,337.7 240.76,337.63 234.92,335.33 C229.76,333.33 225.54,329.48 220.84,326.54 C216.14,323.6 210.29,321.54 205.09,323.42 C204.25,332.37 203.36,341.52 199.56,349.67 C194.550798,360.415667 184.956104,368.323955 173.451721,371.189374 C161.947337,374.054792 149.764205,371.570748 140.3,364.43 C131.39,357.72 125.68,347.37 123.02,336.54 C122.37,333.9 121.63,330.87 119.2,329.66 C116.57,328.34 113.41,329.94 111.2,331.88 C107.2,335.47 103.93,340.61 98.67,341.82 C96.77,342.26 94.67,342.17 93.09,343.32 C92.039922,344.289069 91.1609129,345.4284 90.49,346.69 C88.1516675,349.994099 84.3051644,351.89667 80.26,351.75 C78.43,351.66 76.26,351.24 75.01,352.57 C74.08,353.57 74.01,355.13 73.01,356.06 C71.66,357.37 69.47,356.73 67.59,356.66 C64.03,356.51 60.72,358.79 58.68,361.66 C56.64,364.53 55.68,368.08 54.68,371.52 C65.61,395.86 75.61,420.23 86.54,444.57 C87.0520823,445.487389 87.3238409,446.519384 87.33,447.57 C87.1108033,448.660443 86.6456629,449.686488 85.97,450.57 C80.61,459.18 80.78,470.01 81.37,480.13 C81.96,490.25 82.68,500.94 78.16,510.01 C76.93,512.5 75.33,514.78 74.16,517.27 C71.42,522.91 70.43,540.95 72.03,547.01 L298.11,547.01 C293.8,535.16 295.44,511.38 296.34,498.8 C296.97,490 295.34,481.21 294.64,472.41 C293.11,454.44 294.19,437.39 291.22,419.45 Z" id="Path" fill="#725AC1" fill-rule="nonzero"></path>
            <path d="M37.36,445.65 C36.9599268,448.5439 36.9196203,451.476196 37.24,454.38 L40.11,495.65 C40.38,499.54 40.65,503.42 41.01,507.3 C41.7,514.83 42.73,522.3 44.01,529.76 C44.0699635,531.965498 45.904397,533.705973 48.11,533.65 C60.76,536.33 73.83,536.22 86.74,535.49 C106.44,534.39 126.11,531.88 145.84,532.31 C150.92,532.42 156.84,532.31 159.92,528.31 C163,524.31 161.21,517.84 157.19,514.61 C153.17,511.38 147.71,510.61 142.55,510.61 C135.72,510.54 128.89,511.51 122.08,511.11 C115.83,510.74 109.72,509.23 103.66,507.72 L86.66,503.49 C87.31,498.34 89.27,493.49 91.13,488.6 C94.47,479.93 97.59,470.97 97.65,461.68 C97.71,452.39 94.21,442.62 86.6,437.3 C80.34,432.93 72.28,432.12 64.65,432.3 C59.1,432.46 49.51,431.13 44.44,433.3 C40.43,435.06 38.11,441.72 37.36,445.65 Z" id="Path" fill="#FFD3D3" fill-rule="nonzero"></path>
            <path d="M302.79,540.01 C306.12,538.74 309.79,539.2 313.36,539.68 C324.85,541.25 336.51,542.86 347.16,547.45 C352.16,549.59 356.92,552.45 360.3,556.66 C363.3,560.45 365.05,565.09 366.71,569.66 L370.55,580.18 C372.01,584.18 373.49,588.26 373.9,592.51 C375.1,605.1 366.49,616.97 355.66,623.51 C344.83,630.05 332.08,632.38 319.66,634.82 C307.24,637.26 294.77,639.96 282.4,642.82 C276.630405,644.317283 270.776691,645.469326 264.87,646.27 C251.63,647.77 237.79,645.56 225.21,649.94 C220.21,651.69 215.3,654.29 210.11,655.5 C206.662571,656.225361 203.177063,656.756199 199.67,657.09 L175.86,659.81 C171.018265,660.457572 166.143855,660.831499 161.26,660.93 C150.86,660.93 140.63,658.47 130.53,656.01 C129.456186,655.8216 128.434038,655.409333 127.53,654.8 C125.93,653.54 125.58,651.31 125.35,649.29 C124.33,640.35 123.436667,631.4 122.67,622.44 C122.43,619.53 122.25,616.38 123.84,613.93 C125.84,610.93 129.74,609.99 133.3,609.41 C148.395583,606.940489 163.688009,605.879259 178.98,606.24 C184.79,600.43 194.37,600.4 201.98,597.24 C204.779573,595.954338 207.489078,594.480982 210.09,592.83 C223.702788,584.887929 238.915266,580.081292 254.62,578.76 C257.695505,578.666139 260.750997,578.230119 263.73,577.46 C269.62,575.63 274.99,570.65 281.04,571.87 C281.79,569.8 282.31,567.03 284.04,565.61 C284.9,564.88 285.96,564.39 286.75,563.61 C288.42,561.92 288.57,559.26 288.32,556.9 C288.07,554.54 287.51,552.12 288.12,549.82 C288.373795,548.949223 288.747368,548.117939 289.23,547.35 C292.23,542.17 296.76,539.51 302.79,540.01 Z" id="Path" fill="#464353" fill-rule="nonzero"></path>
            <path d="M302.79,540.01 C306.12,538.74 309.79,539.2 313.36,539.68 C324.85,541.25 336.51,542.86 347.16,547.45 C352.16,549.59 356.92,552.45 360.3,556.66 C363.3,560.45 365.05,565.09 366.71,569.66 L370.55,580.18 C372.01,584.18 373.49,588.26 373.9,592.51 C375.1,605.1 366.49,616.97 355.66,623.51 C344.83,630.05 332.08,632.38 319.66,634.82 C307.24,637.26 294.77,639.96 282.4,642.82 C276.630405,644.317283 270.776691,645.469326 264.87,646.27 C251.63,647.77 237.79,645.56 225.21,649.94 C220.21,651.69 215.3,654.29 210.11,655.5 C206.662571,656.225361 203.177063,656.756199 199.67,657.09 L175.86,659.81 C171.018265,660.457572 166.143855,660.831499 161.26,660.93 C150.86,660.93 140.63,658.47 130.53,656.01 C129.456186,655.8216 128.434038,655.409333 127.53,654.8 C125.93,653.54 125.58,651.31 125.35,649.29 C124.33,640.35 123.436667,631.4 122.67,622.44 C122.43,619.53 122.25,616.38 123.84,613.93 C125.84,610.93 129.74,609.99 133.3,609.41 C148.395583,606.940489 163.688009,605.879259 178.98,606.24 C184.79,600.43 194.37,600.4 201.98,597.24 C204.779573,595.954338 207.489078,594.480982 210.09,592.83 C223.702788,584.887929 238.915266,580.081292 254.62,578.76 C257.695505,578.666139 260.750997,578.230119 263.73,577.46 C269.62,575.63 274.99,570.65 281.04,571.87 C281.79,569.8 282.31,567.03 284.04,565.61 C284.9,564.88 285.96,564.39 286.75,563.61 C288.42,561.92 288.57,559.26 288.32,556.9 C288.07,554.54 287.51,552.12 288.12,549.82 C288.373795,548.949223 288.747368,548.117939 289.23,547.35 C292.23,542.17 296.76,539.51 302.79,540.01 Z" id="Path" fill="#000000" fill-rule="nonzero" opacity="0.05"></path>
            <path d="M106.22,655.72 C100.03,662.89 94.58,665.45 84.89,665.22 C78.93,665.08 72.9766667,664.77 67.03,664.29 C62.9654488,663.850477 58.8778077,663.660121 54.79,663.72 C42.45,664.2 30.54,669.85 18.23,668.86 C16.4097752,668.716734 14.6097829,668.381539 12.86,667.86 C10.0673738,667.090649 7.54347999,665.560387 5.57,663.44 C3.21,660.77 2.08,657.23 1.43,653.73 C-1.86,635.79 7.16,616.25 22.95,607.12 C25.0101901,605.789479 27.3521463,604.957468 29.79,604.689864 C32.180528,604.680209 34.543632,605.199273 36.71,606.21 L36.86,606.27 C43.2751106,608.909589 49.1013913,612.798309 54,617.71 C54.7432046,618.561155 55.6299813,619.275315 56.62,619.82 C57.6079921,620.193134 58.6539479,620.389462 59.71,620.4 L72.85,621.23 C75.0762123,621.296437 77.288873,621.601516 79.45,622.14 C81.8324773,622.97178 84.1518327,623.974383 86.39,625.14 C93.46,628.3 101.3,629.14 108.94,630.36 C109.676234,630.400685 110.378806,630.681714 110.94,631.16 C111.244912,631.539246 111.457198,631.984363 111.56,632.46 C113.740034,640.619266 111.740551,649.328624 106.22,655.72 Z" id="Path" fill="#3F3D56" fill-rule="nonzero"></path>
            <path d="M36.86,606.28 C31.7619728,611.147987 27.3392802,616.677194 23.71,622.72 C17.8860245,632.692737 14.2266797,643.779803 12.97,655.26 C12.49344,659.447981 12.4565724,663.674343 12.86,667.87 C10.0673738,667.100649 7.54347999,665.570387 5.57,663.45 C3.21,660.78 2.08,657.24 1.43,653.74 C-1.86,635.8 7.16,616.26 22.95,607.13 C25.0101901,605.799479 27.3521463,604.967468 29.79,604.699864 C32.180528,604.690209 34.543632,605.209273 36.71,606.22 L36.86,606.28 Z" id="Path" fill="#000000" fill-rule="nonzero" opacity="0.1"></path>
            <path d="M291.35,631.16 C298.7,630.96 306.95,630.59 312.35,635.54 C317.5,640.22 318.18,647.94 318.52,654.89 L318.91,662.96 C319.03,665.42 319.13,667.96 318.14,670.24 C316.38,674.24 311.55,676.17 307.14,675.94 C302.73,675.71 298.68,673.78 294.65,672.04 C283.709061,667.326576 272.317112,663.738112 260.65,661.33 C261.03,655.75 261.663333,650.196667 262.55,644.67 C263.16,640.84 263.26,634.43 265.82,631.25 C268.53,627.89 272.06,629.71 275.74,630.33 C280.903518,631.117963 286.132038,631.395968 291.35,631.16 L291.35,631.16 Z" id="Path" fill="#FFD3D3" fill-rule="nonzero"></path>
            <path d="M97.11,550.07 C97.11,551.07 95.54,550.07 95.4,549 C94.3,540.91 87.88,534.24 80.4,531 C72.92,527.76 64.4,527.59 56.3,528.36 C44.05,529.52 30.3,534.21 25.82,545.66 C24.76,548.34 24.28,551.24 22.98,553.81 C21.54,556.63 19.19,558.88 17.63,561.62 C14.94,566.36 14.83,572.17 15.8,577.53 C18.41,591.83 28.19,604.06 40.04,612.53 C51.89,621 65.74,626.06 79.55,630.62 C116.066624,642.663471 153.532224,651.611728 191.55,657.37 C197.71,658.3 203.93,659.16 209.83,661.14 C215.11,662.91 220.05,665.56 225.21,667.64 C237.21,672.46 250.12,674.18 262.91,675.87 C265.09,676.15 267.59,676.35 269.2,674.87 C271.28,672.94 270.59,669.58 270,666.81 C267.82913,656.277771 269.650383,645.314616 275.11,636.05 C277.25,632.45 280.03,628.76 279.63,624.59 C279.15,619.73 274.31,616.29 269.49,615.51 C264.67,614.73 259.77,615.88 254.93,616.51 C253.26,616.73 251.44,616.87 249.98,616.02 C249.260659,615.53428 248.608389,614.955979 248.04,614.3 C241.199743,607.701296 230.887471,606.259839 222.5,610.73 C220.71,611.73 218,609.5 216.14,608.66 L195.11,599.14 C170.95,588.21 146.67,577.23 121.11,570.31 C119.07063,569.909122 117.132395,569.103224 115.41,567.94 C114.14,566.94 113.23,565.58 112.06,564.47 C109.51,562.06 105.96,561.1 102.9,559.39 C99.84,557.68 96.41,553.5 97.11,550.07 Z" id="Path" fill="#464353" fill-rule="nonzero"></path>
            <path d="M421.32,680.76 C417.96,686.99 411.44,690.87 404.44,692.47 C402.683321,692.866453 400.897534,693.12061 399.1,693.23 C390.25,693.78 381.51,691.33 372.98,688.91 L361.4,685.65 C359.409225,685.023337 357.368433,684.568341 355.3,684.29 C352.484084,684.101908 349.656364,684.199069 346.86,684.58 C333.173705,685.853266 319.377223,685.234106 305.86,682.74 C304.729159,682.617926 303.643072,682.230772 302.69,681.61 C301.855025,680.7915 301.113791,679.882565 300.48,678.9 C297.33,675.11 293.94,672.9 297.67,667.9 C299.82,665 303.81,663.55 305.48,660.22 C307.15,656.89 306.08,652.16 305.09,648.72 C303.74,643.97 299.3,641.92 297.71,637.56 C296.52,634.27 298.52,630.45 301.53,628.66 C304.54,626.87 308.26,626.73 311.73,627.19 C315.2,627.65 318.6,628.63 322.09,628.9 C332.35,629.72 342.84,624.43 352.69,627.41 C354.86,628.07 356.91,629.12 359.11,629.7 C363.398976,630.659367 367.879521,630.271728 371.94,628.59 C373.38,628.05 374.79,627.4 376.19,626.76 C378.889934,625.354428 381.765288,624.315266 384.74,623.67 C394.35,622.02 403.26,628.67 410.51,635.16 C412.998737,637.225509 415.20142,639.613149 417.06,642.26 C419.06,645.38 420.12,649.01 421.06,652.59 C423.71,661.84 425.9,672.26 421.32,680.76 Z" id="Path" fill="#3F3D56" fill-rule="nonzero"></path>
            <path d="M421.32,680.76 C417.96,686.99 411.44,690.87 404.44,692.47 C407.162944,687.179661 408.390379,681.246481 407.99,675.31 C407.39,665.8 403.21,656.84 397.88,648.94 C394.600984,644.076919 390.871177,639.533518 386.74,635.37 C383.56,632.17 379.65,629.63 376.23,626.7 C378.929934,625.294428 381.805288,624.255266 384.78,623.61 C394.39,621.96 403.3,628.61 410.55,635.1 C413.038737,637.165509 415.24142,639.553149 417.1,642.2 C419.1,645.32 420.16,648.95 421.1,652.53 C423.71,661.84 425.9,672.26 421.32,680.76 Z" id="Path" fill="#000000" fill-rule="nonzero" opacity="0.1"></path>
            <path d="M54.11,372.26 C53.1358753,373.279733 52.3804196,374.487781 51.89,375.81 C43.806633,394.027313 39.0320951,413.538581 37.79,433.43 C37.8117471,434.399899 37.5881658,435.359579 37.14,436.22 C36.6980568,436.79249 36.2061227,437.324582 35.67,437.81 C34.6859715,438.976369 34.2286927,440.498063 34.4067746,442.013654 C34.5848566,443.529245 35.3824089,444.903496 36.61,445.81 C38.26,442.7 42.21,441.69 45.72,441.42 C62.53,440.09 78.95,447.91 95.81,447.32 C94.62,443.21 92.91,439.26 91.94,435.1 C87.65,416.63 98.35,396.52 91.79,378.73 C90.48,375.17 88.29,371.67 84.84,370.11 C83.4115519,369.533014 81.9166589,369.136615 80.39,368.93 C76.13,368.16 67.65,364.87 63.53,366.19 C62.01,366.68 61.41,368.11 60.15,368.97 C58.24,370.2 55.7,370.65 54.11,372.26 Z" id="Path" fill="#725AC1" fill-rule="nonzero"></path>
            <rect id="Rectangle" fill="#3F3D56" fill-rule="nonzero" x="89.57" y="408.66" width="223" height="142" rx="7.97"></rect>
            <circle id="Oval" fill="#FFFFFF" fill-rule="nonzero" cx="200.57" cy="479.66" r="6"></circle>
            <path d="M119.29,193.5 C115.93,195.93 113.63,199.42 111.29,202.77 C106.98,208.96 102.1,215.14 95.21,218.59 C92.6,219.9 89.62,220.89 87.89,223.17 C86.8631655,224.711948 86.1966845,226.465305 85.94,228.3 C84.6201161,234.751189 83.9302077,241.315366 83.88,247.9 C83.88,251.18 84.02,254.56 85.47,257.54 C86.84,260.34 89.31,262.71 89.82,265.76 C90.21,268.14 89.33,270.51 89.02,272.9 C88.71,275.29 89.25,278.12 91.46,279.26 C92.650781,279.707931 93.8943812,280.000345 95.16,280.13 C101.81,281.61 104.04,289.41 105.05,295.86 C107.31,295.73 108.33,293.14 108.8,291.03 L115.73,260.22 C116.48,256.88 117.73,253.01 121.06,251.84 C123.29,251.07 125.73,251.79 128.06,251.99 C137.21,252.74 144.95,245.67 153.9,243.72 C156.76484,243.141825 159.693793,242.946786 162.61,243.14 C169.67,243.49 177.88,246.39 179.38,252.98 C179.63,254.05 179.78,255.33 180.78,255.86 C181.78,256.39 182.83,255.94 183.88,255.86 C188.36,255.41 191,260.45 192.29,264.57 L196.99,279.57 C197.69,281.84 198.87,284.51 201.33,284.8 C203.6,285.08 205.53,282.93 205.87,280.8 C206.21,278.67 205.47,276.46 204.98,274.32 C202.77,264.47 206.15,254.39 208.21,244.52 C210.27,234.65 210.64,223.31 203.73,215.71 C201.22,212.96 197.92,210.91 195.58,208.01 C193.4,205.29 192.17,201.95 189.91,199.28 C183.66,191.91 167.63,186.22 157.8,185.28 C146.57,184.06 128.37,186.91 119.29,193.5 Z" id="Path" fill="#FBD157" fill-rule="nonzero"></path>
            <g id="Group" opacity="0.8" transform="translate(271.000000, 122.000000)">
                <line x1="31.04" y1="168.49" x2="656.1" y2="168.49" id="Path" stroke="#3F3D56" stroke-width="3"></line>
                <path d="M86.57,168.48 C86.57,168.48 116.46,172.63 100.98,140.56 C85.5,108.49 142.98,114.56 142.98,114.56" id="Path" stroke="#3F3D56" stroke-width="3"></path>
                <path d="M285.64,168.48 C285.64,168.48 315.53,164.34 300.05,196.41 C284.57,228.48 342.05,222.41 342.05,222.41" id="Path" stroke="#3F3D56" stroke-width="3"></path>
                <path d="M572.27,168.48 C572.27,168.48 542.37,164.34 557.86,196.41 C573.35,228.48 515.86,222.41 515.86,222.41" id="Path" stroke="#3F3D56" stroke-width="3"></path>
                <line x1="515.86" y1="222.4" x2="350.93" y2="222.4" id="Path" stroke="#3F3D56" stroke-width="3"></line>
                <circle id="Oval" fill="#725AC1" fill-rule="nonzero" cx="31.04" cy="168.49" r="18.25"></circle>
                <circle id="Oval" fill="#3ACC6C" fill-rule="nonzero" cx="143.29" cy="114.3" r="18.25"></circle>
                <circle id="Oval" fill="#725AC1" fill-rule="nonzero" cx="143.29" cy="168.49" r="18.25"></circle>
                <circle id="Oval" fill="#725AC1" fill-rule="nonzero" cx="215.73" cy="168.49" r="18.25"></circle>
                <circle id="Oval" fill="#FF6584" fill-rule="nonzero" cx="342.35" cy="222.13" r="18.25"></circle>
                <circle id="Oval" fill="#FF6584" fill-rule="nonzero" cx="438.03" cy="222.13" r="18.25"></circle>
                <circle id="Oval" fill="#725AC1" fill-rule="nonzero" cx="433.04" cy="168.49" r="18.25"></circle>
                <circle id="Oval" fill="#725AC1" fill-rule="nonzero" cx="651.48" cy="168.49" r="18.25"></circle>
                <circle id="Oval" fill="#725AC1" fill-rule="nonzero" cx="562.12" cy="168.49" r="18.25"></circle>
                <rect id="Rectangle" fill="#725AC1" fill-rule="nonzero" x="0.38" y="0.66" width="61.23" height="42.2"></rect>
                <rect id="Rectangle" fill="#3ACC6C" fill-rule="nonzero" x="112.9" y="0.66" width="61.23" height="42.2"></rect>
                <rect id="Rectangle" fill="#FF6584" fill-rule="nonzero" x="311.48" y="0.66" width="61.23" height="42.2"></rect>
            </g>
        </g>
        <path d="M304.837296,351.401334 C315.552357,348.72977 322.072899,337.877765 319.401334,327.162704 C316.72977,316.447643 305.877765,309.927101 295.162704,312.598666 C284.447643,315.27023 277.927101,326.122235 280.598666,336.837296 C283.27023,347.552357 294.122235,354.072899 304.837296,351.401334 Z" id="Oval" fill="#FBD157" fill-rule="nonzero"></path>
        <path d="M284.155637,342.378846 C276.492127,331.166593 278.246709,315.897136 288.220949,307 C287.434926,307.446566 286.672244,307.934771 285.935948,308.462664 C274.261976,316.849769 271.498774,333.4412 279.762579,345.530184 C288.026384,357.619169 304.191156,360.632675 315.876885,352.262768 C316.612919,351.734491 317.321567,351.167242 318,350.563285 C306.427635,357.122541 291.820462,353.59015 284.155637,342.378846 Z" id="Path" fill="#FBD157" fill-rule="nonzero"></path>
    </g>
</svg>