<?xml version="1.0" encoding="UTF-8"?>
<svg width="1300px" height="1000px" viewBox="0 0 1300 1000" version="1.1" xmlns="http://www.w3.org/2000/svg" xmlns:xlink="http://www.w3.org/1999/xlink">
    <!-- Generator: Sketch 64 (93537) - https://sketch.com -->
    <title>Artboard</title>
    <desc>Created with Sketch.</desc>
    <g id="Artboard" stroke="none" stroke-width="1" fill="none" fill-rule="evenodd">
        <g id="flo" transform="translate(294.000000, 165.000000)" fill-rule="nonzero">
            <polygon id="Path" fill="#E6E6E6" points="516.326 380.018 516.326 565.013 547.27 615.443 549.625 619.279 671.722 619.279 674.189 380.018"></polygon>
            <polygon id="Path" fill="#000000" opacity="0.1" points="516.326 380.018 516.326 565.013 547.27 615.443 549.169 380.018"></polygon>
            <polygon id="Path" fill="#E6E6E6" points="221.566 375.084 221.566 560.08 190.622 610.51 188.267 614.345 66.17 614.345 63.703 375.084"></polygon>
            <polygon id="Path" fill="#000000" opacity="0.1" points="221.566 375.084 221.566 560.08 190.622 610.51 188.723 375.084"></polygon>
            <polygon id="Path" fill="#E6E6E6" points="711.188 371.385 711.188 382.484 47.67 382.484 47.67 366.451 109.335 334.385 656.923 334.385"></polygon>
            <polygon id="Path" fill="#000000" opacity="0.1" points="711.188 371.385 711.188 382.484 47.67 382.484 47.67 366.451"></polygon>
            <polygon id="Path" fill="#3F3D56" points="142.635 426.883 113.035 426.883 100.702 418.25 156.201 418.25"></polygon>
            <polygon id="Path" fill="#3F3D56" points="142.635 462.649 113.035 462.649 100.702 454.016 156.201 454.016"></polygon>
            <polygon id="Path" fill="#3F3D56" points="142.635 513.215 113.035 513.215 100.702 504.581 156.201 504.581"></polygon>
            <polygon id="Path" fill="#3F3D56" points="142.635 563.78 113.035 563.78 100.702 555.147 156.201 555.147"></polygon>
            <polygon id="Path" fill="#3F3D56" points="595.257 431.816 624.857 431.816 637.19 423.183 581.691 423.183"></polygon>
            <polygon id="Path" fill="#3F3D56" points="595.257 467.582 624.857 467.582 637.19 458.949 581.691 458.949"></polygon>
            <polygon id="Path" fill="#3F3D56" points="595.257 518.148 624.857 518.148 637.19 509.515 581.691 509.515"></polygon>
            <polygon id="Path" fill="#3F3D56" points="595.257 568.713 624.857 568.713 637.19 560.08 581.691 560.08"></polygon>
            <path d="M615.41384,120.45627 L366.22841,120.45627 C363.728942,120.45627 361.331755,121.448724 359.564365,123.216115 C357.796974,124.983505 356.80452,127.380692 356.80452,129.88016 L356.80452,297.73789 C356.80452,300.237356 357.796978,302.63454 359.564368,304.401929 C361.331759,306.169317 363.728944,307.162086 366.22841,307.16177 L460.82131,307.16177 L457.27742,329.788 C457.27742,329.788 437.02461,340.54727 451.26491,340.86374 C465.50521,341.18021 532.59255,340.86374 532.59255,340.86374 C532.59255,340.86374 545.56703,340.86374 524.99776,329.47153 L521.66414,307.16177 L615.41384,307.16177 C617.913308,307.162094 620.310496,306.169327 622.077887,304.401937 C623.845277,302.634546 624.83772,300.237358 624.83772,297.73789 L624.83772,129.88016 C624.83772,127.380691 623.845281,124.983499 622.07789,123.216107 C620.3105,121.448714 617.913309,120.45627 615.41384,120.45627 Z" id="Path" fill="#3F3D56"></path>
            <rect id="Rectangle" fill="#F2F2F2" x="365.82336" y="130.42445" width="249.99557" height="139.87094"></rect>
            <circle id="Oval" fill="#F2F2F2" cx="490.82114" cy="125.99415" r="1.58225"></circle>
            <circle id="Oval" fill="#F2F2F2" cx="490.82114" cy="294.34559" r="6.01255"></circle>
            <polygon id="Path" fill="#3F3D56" points="481.452 357.952 481.452 361.117 311.202 361.117 311.202 358.585 311.436 357.952 315.632 346.56 477.971 346.56"></polygon>
            <path d="M546.96953,354.854 C546.65942,356.1799 545.48853,357.57867 542.84303,358.90141 C533.34953,363.64816 514.04603,357.63561 514.04603,357.63561 C514.04603,357.63561 499.17288,355.104 499.17288,348.45855 C499.590491,348.172582 500.02597,347.913626 500.47665,347.68327 C504.46798,345.57164 517.70195,340.36105 541.16716,347.90389 C542.895866,348.446528 544.439986,349.458436 545.62751,350.82689 C546.69476,351.876381 547.193867,353.374092 546.96953,354.854 Z" id="Path" fill="#3F3D56"></path>
            <path d="M546.96953,354.854 C535.34953,359.30647 524.99209,359.63872 514.36253,352.25595 C510.34292,349.284258 505.475521,347.681396 500.4767,347.68327 C504.46803,345.57164 517.702,340.36105 541.16721,347.90389 C542.895916,348.446528 544.440036,349.458436 545.62756,350.82689 C546.694792,351.876391 547.19388,353.3741 546.96953,354.854 Z" id="Path" fill="#000000" opacity="0.1"></path>
            <ellipse id="Oval" fill="#F2F2F2" cx="532.40017" cy="350.99016" rx="4.11385" ry="1.2658"></ellipse>
            <polygon id="Path" fill="#000000" opacity="0.1" points="481.452 357.952 481.452 361.117 311.202 361.117 311.202 358.585 311.436 357.952"></polygon>
            <path d="M97.102465,4 C95.3746108,3.85813603 85.3585293,9.82966996 84.4089393,11.47752 C80.7782541,17.853138 82.1121873,17.9569215 76.2238044,22.33383 C71.9348644,25.47583 69.4391862,37.8224218 70.4359023,39.50063 C72.3918857,49.2824609 74.56618,55.8849658 73.50417,64.9987958 C77.43517,58.4178758 77.35729,53.55884 81.28829,46.97798 C83.16034,43.84398 86.41241,40.3063 89.23883,42.27445 C90.1852,42.93345 90.8066,44.1154 91.79197,44.69362 C94.14319,46.07334 96.64456,43.43562 98.72584,41.56729 C105.90269,35.12466 116.10884,36.81249 125.03971,38.81986 C129.25595,39.76753 133.88701,41.01086 136.37942,45.04056 C139.65642,50.33877 133.26598,56.0609 131.65135,62.05105 C131.383788,63.0870791 131.641017,64.1884581 132.3398,64.9987958 C133.038584,65.8091335 134.09017,66.2255095 135.15428,66.11319 C137.83403,65.84885 141.8382,67.28913 141.99678,66.11319 C145.36832,66.23319 145.614053,62.87555 147.058643,59.36486 C147.500157,57.9758309 149.500149,55.555774 149.517784,54.0983705 C150.047984,48.2011905 155.115386,43.5460254 155.115386,37.3709568 C155.115386,31.1958882 154.21111,29.20963 151.41296,24.23333 C150.414328,22.5776295 148.490985,19.8267177 147.058643,18.52787 C131.179633,3.16112 115.234986,-3.9138737 97.102465,4 Z" id="Path" fill="#FBD157"></path>
            <path d="M82.1377,74.9052 C82.1377,74.9052 85.5911,103.6836 72.92861,105.98588 C60.26612,108.28816 84.43997,147.42678 84.43997,147.42678 L141.99678,154.3336 L128.18314,108.28815 C128.18314,108.28815 118.97405,104.83474 124.72974,81.81202 C130.48543,58.7893 82.1377,74.9052 82.1377,74.9052 Z" id="Path" fill="#FFD3D3"></path>
            <polygon id="Path" fill="#FFD3D3" points="47.028 569.318 51.633 632.631 75.806 632.631 68.9 569.318"></polygon>
            <polygon id="Path" fill="#FFD3D3" points="224.303 449.6 227.756 502.552 254.233 491.041 243.872 447.298"></polygon>
            <path d="M29.761,327.5796 C29.761,327.5796 30.91213,394.3455 37.819,416.21709 C44.72587,438.08868 43.57468,439.23981 42.42355,442.69322 C41.27242,446.14663 40.12127,443.84436 40.12127,449.60004 C40.12127,455.35572 37.819,546.29548 40.12127,554.35344 C42.42354,562.4114 33.21446,576.22503 40.12127,577.37616 C47.02808,578.52729 79.2599,577.37616 80.41104,570.46934 C81.56218,563.56252 71.20195,561.26025 75.8065,556.65571 C80.41105,552.05117 87.31786,457.65799 87.31786,457.65799 L103.43377,392.04323 L133.36331,357.50914 L196.67575,357.50914 L216.24507,433.48414 C216.24507,433.48414 208.18707,455.35573 213.94279,455.35573 C219.69851,455.35573 254.23256,462.26255 254.23256,436.93755 C254.23256,411.61255 242.7212,336.78869 240.41895,334.48642 C238.1167,332.18415 241.57008,324.12619 238.11667,320.67278 C234.66326,317.21937 194.3735,293.04551 179.40873,288.44097 C164.44396,283.83643 143.45095,278.3561 143.45095,278.3561 L29.761,327.5796 Z" id="Path" fill="#2F2E41"></path>
            <path d="M254.23256,481.83185 C254.23256,481.83185 236.96556,476.07617 228.90756,493.34322 C220.84956,510.61027 224.30302,515.21481 224.30302,515.21481 C224.30302,515.21481 250.77915,524.4239 255.3837,519.81935 C257.38703,517.81601 263.74841,517.12009 270.29643,516.97314 C280.26932,516.74933 282.92268,502.63991 273.50391,499.35429 C273.222943,499.25629 272.938553,499.17116 272.65074,499.0989 C263.44165,496.79663 254.23256,481.83185 254.23256,481.83185 Z" id="Path" fill="#2F2E41"></path>
            <circle id="Oval" fill="#FFD3D3" cx="108.03826" cy="59.36486" r="34.53409"></circle>
            <path d="M63.14395,120.37508 C63.14395,120.37508 119.54962,131.88644 133.36326,113.46826 C147.1769,95.05008 152.93257,165.26939 152.93257,165.26939 L159.83939,238.94211 L149.47916,279.23188 C149.47916,279.23188 95.37576,322.97506 78.10872,326.42846 C60.84168,329.88186 34.36554,332.18415 34.36554,332.18415 C34.36554,332.18415 42.42354,204.40802 42.42354,202.10575 C42.42354,199.80348 63.14395,120.37508 63.14395,120.37508 Z" id="Path" fill="#725AC1"></path>
            <path d="M80.29828,98.7859 C80.29828,98.7859 67.74849,91.59667 64.29508,98.50349 C60.84167,105.41031 28.60986,122.67734 25.15645,122.67734 C21.70304,122.67734 32.06327,218.22165 27.45872,229.73301 C22.85417,241.24437 0.98259,325.27734 13.64509,332.18415 C26.30759,339.09096 17.0985,325.27733 29.761,342.54437 C42.4235,359.81141 104.58485,359.81137 108.03826,352.9046 C111.49167,345.99783 80.41099,294.1966 86.16667,245.84893 C91.92235,197.50126 101.13144,130.73531 93.07349,121.52622 C85.01554,112.31713 80.29828,98.7859 80.29828,98.7859 Z" id="Path" fill="#2F2E41"></path>
            <path d="M121.85195,106.56144 L123.45536,101.04344 C123.45536,101.04344 171.3508,116.92168 173.65308,127.28191 C175.95536,137.64214 174.80421,210.16372 166.74626,215.9194 C158.68831,221.67508 147.17694,230.88417 155.2349,244.6978 C163.29286,258.51143 172.5019,273.47621 179.40876,274.62734 C186.31562,275.77847 198.97807,283.83643 195.52466,291.89434 C192.07125,299.95225 150.63035,284.98752 150.63035,284.98752 C150.63035,284.98752 123.00308,264.26707 124.15422,232.03525 C125.30536,199.80343 121.85195,106.56144 121.85195,106.56144 Z" id="Path" fill="#2F2E41"></path>
            <path d="M162.14166,242.39552 L134.51439,294.19665 C134.51439,294.19665 94.22463,335.63755 117.24739,340.2421 C140.27015,344.84665 152.93261,302.2546 152.93261,302.2546 L182.86216,259.6626 L162.14166,242.39552 Z" id="Path" fill="#FFD3D3"></path>
            <path d="M96.34376,9.03591 C94.9517995,8.9327681 93.5575458,9.20319672 92.30508,9.81925 C91.1726471,10.646315 90.2393059,11.7159426 89.57326,12.94997 C86.5028692,17.5685235 82.5004918,21.4938855 77.82316,24.47397 C74.33178,26.69474 69.89302,29.46369 70.49036,33.55817 C70.8146225,34.9309797 71.3917365,36.231387 72.19218,37.39287 C75.4241355,43.0950931 76.7107647,49.6948884 75.85737,56.19355 L85.45748,42.23955 C86.98141,40.02448 89.62873,37.52405 91.92955,38.91513 C92.69994,39.3809 93.20578,40.2163 94.00791,40.62498 C95.92191,41.60016 97.95812,39.73586 99.65238,38.41531 C105.49463,33.8617 113.80287,35.05465 121.07297,36.47344 C124.50516,37.14325 128.27504,38.02203 130.30397,40.8702 C133.67566,45.60331 130.15497,52.4423 132.12279,57.9102 C133.235678,57.1310275 133.985526,55.9343233 134.20131,54.59303 C136.94588,54.67787 140.30881,54.40803 141.48476,51.92665 C141.842431,50.9542107 142.033033,49.9282753 142.0485,48.89226 C142.48011,44.72417 144.51757,40.92161 145.86733,36.95457 C147.21709,32.98753 147.80399,28.33841 145.52617,24.82119 C144.69287,23.6294636 143.687137,22.5681541 142.54191,21.67202 C129.61569,10.81092 112.62059,9.01979 96.34376,9.03591 Z" id="Path" fill="#FBD157"></path>
            <path d="M162.14166,122.67734 L172.86694,125.5242 C172.86694,125.5242 197.82689,189.4432 192.07121,233.18642 C186.31553,276.92964 182.86212,267.72051 182.86212,267.72051 C182.86212,267.72051 173.65303,247.00005 152.93257,251.6046 L162.14166,122.67734 Z" id="Path" fill="#2F2E41"></path>
            <path d="M48.62289,624.26334 C45.84697,628.03562 46.40354,633.42793 43.94461,637.41409 C41.81317,640.86935 37.79624,642.68104 35.13022,645.74278 C34.2795222,646.75995 33.5211344,647.850885 32.86405,649.00265 C30.39094,653.1452 28.38075,658.45439 30.81644,662.61906 C32.7758,665.96928 36.8943,667.27867 40.67144,668.17106 C45.44551,669.29906 50.4058,670.20177 55.23498,669.33982 C60.06416,668.47787 64.7838,665.52082 66.50565,660.92743 C66.8440717,659.772424 67.2463914,658.637108 67.71075,657.52673 C70.32822,652.37379 78.53824,652.31809 81.21703,647.19673 C83.09169,643.61273 81.36841,639.2805 79.64585,635.62095 L74.38476,624.44385 C72.63884,620.73466 65.56114,622.86777 61.87137,621.97893 C57.05913,620.81978 52.08479,619.5426 48.62289,624.26334 Z" id="Path" fill="#2F2E41"></path>
            <path d="M10.19168,265.41824 L58.5394,340.2421 C58.5394,340.2421 88.46894,378.22959 97.67803,360.96255 C106.88712,343.69551 65.44622,314.9171 65.44622,314.9171 L34.36554,257.36034 L10.19168,265.41824 Z" id="Path" fill="#FFD3D3"></path>
            <path d="M34.36554,124.97962 L25.15645,122.67734 C25.15645,122.67734 6.73827,128.43302 2.13373,152.60688 C-2.47081,176.78074 0.98259,273.47619 6.73827,274.62732 C12.49395,275.77845 35.16552,257.79069 38.79451,261.60446 C42.4235,265.41823 30.91213,245.84892 34.36551,235.48869 C37.81889,225.12846 34.36554,124.97962 34.36554,124.97962 Z" id="Path" fill="#2F2E41"></path>
            <g id="f3c2397c-d780-4cc6-97d8-1503d8277a2c" transform="translate(399.000000, 176.000000)" fill="#725AC1">
                <rect id="ad41612f-86f7-46b2-a964-3a5da7bcf3cf" x="38.40692" y="0.36275" width="29.75235" height="7.1626"></rect>
                <rect id="b9a0b375-cc2a-4c59-8850-661af54e4f62" x="160.72215" y="0.36275" width="10.46842" height="7.1626"></rect>
                <rect id="e174c2ab-9bc5-41ec-b37c-b06fbf8a9878" x="181.65899" y="0.36275" width="10.46842" height="7.1626"></rect>
                <rect id="ba2479ac-4c7d-43b4-a028-73b1e20e4002" x="78.62768" y="0.36275" width="71.07506" height="7.1626"></rect>
                <rect id="ac60ef86-00f2-480b-8171-28b6fdfc1958" x="0.94099" y="46.6442" width="29.75235" height="7.1626"></rect>
                <rect id="b3d8298d-cd65-487a-8b19-4cee946356e7" x="123.25621" y="46.6442" width="10.46842" height="7.1626"></rect>
                <rect id="ed27f15f-f0c4-4569-8330-a6688f8e356c" x="144.19305" y="46.6442" width="10.46842" height="7.1626"></rect>
                <rect id="f685c005-adaf-4d60-acda-005b037d82a6" x="41.16176" y="46.6442" width="71.07506" height="7.1626"></rect>
                <rect id="eca7c7fc-83f8-48ca-a588-6606db47af3f" x="123.80718" y="16.34088" width="29.75235" height="7.1626"></rect>
                <rect id="a71b5b2f-f8b9-481d-a301-5e3357e5fe42" x="164.02795" y="16.34088" width="29.75235" height="7.1626"></rect>
                <rect id="abb3a25a-f854-41fc-8391-e6ad9fbe2417" x="0.94099" y="16.34088" width="10.46842" height="7.1626"></rect>
                <rect id="add2b425-b775-4eb5-9c25-8c4c14f957c9" x="21.87784" y="16.34088" width="10.46842" height="7.1626"></rect>
                <rect id="b7159612-3b84-4b0b-a885-612eaab04c06" x="42.81466" y="16.34088" width="71.07506" height="7.1626"></rect>
                <rect id="edfc7301-4de5-47dc-80e2-1ae2da982d6d" x="62.09859" y="31.76802" width="29.75235" height="7.1626"></rect>
                <rect id="e1009f91-6275-4375-80fa-0d778e331fdc" x="21.87783" y="31.76802" width="29.75235" height="7.1626"></rect>
                <rect id="a060fb9f-1f1a-4862-9a69-16dd49199e18" x="0.941" y="31.76802" width="10.46842" height="7.1626"></rect>
                <rect id="b6754d5f-104f-449c-b9a9-cf9ac82bf5fe" x="183.31189" y="31.76802" width="10.46842" height="7.1626"></rect>
                <rect id="e6ed1ccd-2cfd-450f-a339-07df3a1ee6bb" x="101.76841" y="31.76802" width="71.07506" height="7.1626"></rect>
            </g>
        </g>
        <circle id="Oval" fill="#FBD157" fill-rule="nonzero" cx="420.358501" cy="162.595045" r="15"></circle>
        <path d="M406.461932,165.358985 C406.462545,155.240792 414.104083,146.756826 424.167132,145.701905 C423.483178,145.630886 422.796014,145.595045 422.108382,145.595045 C411.198552,145.602806 402.358501,154.449147 402.358501,165.35898 C402.358501,176.268813 411.198552,185.115155 422.108382,185.122915 C422.796014,185.122915 423.483178,185.087075 424.167132,185.016055 C414.104087,183.961134 406.46255,175.477174 406.461932,165.358985 Z" id="Path" fill="#FBD157" fill-rule="nonzero" transform="translate(413.262817, 165.358980) rotate(-21.000000) translate(-413.262817, -165.358980) "></path>
    </g>
</svg>